<svg xmlns="http://www.w3.org/2000/svg" xmlns:xlink="http://www.w3.org/1999/xlink" width="600" height="400" viewBox="0 0 2400 1600">
<defs>
  <clipPath id="clip940">
    <rect x="0" y="0" width="2400" height="1600"></rect>
  </clipPath>
</defs>
<path clip-path="url(#clip940)" d="M0 1600 L2400 1600 L2400 0 L0 0  Z" fill="#ffffff" fill-rule="evenodd" fill-opacity="1"></path>
<defs>
  <clipPath id="clip941">
    <rect x="480" y="0" width="1681" height="1600"></rect>
  </clipPath>
</defs>
<path clip-path="url(#clip940)" d="M219.38 1423.18 L2352.76 1423.18 L2352.76 123.472 L219.38 123.472  Z" fill="#ffffff" fill-rule="evenodd" fill-opacity="1"></path>
<defs>
  <clipPath id="clip942">
    <rect x="219" y="123" width="2134" height="1301"></rect>
  </clipPath>
</defs>
<polyline clip-path="url(#clip942)" style="stroke:#000000; stroke-linecap:round; stroke-linejoin:round; stroke-width:2; stroke-opacity:0.1; fill:none" points="279.759,1423.18 279.759,123.472 "></polyline>
<polyline clip-path="url(#clip942)" style="stroke:#000000; stroke-linecap:round; stroke-linejoin:round; stroke-width:2; stroke-opacity:0.1; fill:none" points="782.913,1423.18 782.913,123.472 "></polyline>
<polyline clip-path="url(#clip942)" style="stroke:#000000; stroke-linecap:round; stroke-linejoin:round; stroke-width:2; stroke-opacity:0.1; fill:none" points="1286.07,1423.18 1286.07,123.472 "></polyline>
<polyline clip-path="url(#clip942)" style="stroke:#000000; stroke-linecap:round; stroke-linejoin:round; stroke-width:2; stroke-opacity:0.1; fill:none" points="1789.22,1423.18 1789.22,123.472 "></polyline>
<polyline clip-path="url(#clip942)" style="stroke:#000000; stroke-linecap:round; stroke-linejoin:round; stroke-width:2; stroke-opacity:0.1; fill:none" points="2292.38,1423.18 2292.38,123.472 "></polyline>
<polyline clip-path="url(#clip940)" style="stroke:#000000; stroke-linecap:round; stroke-linejoin:round; stroke-width:4; stroke-opacity:1; fill:none" points="219.38,1423.18 2352.76,1423.18 "></polyline>
<polyline clip-path="url(#clip940)" style="stroke:#000000; stroke-linecap:round; stroke-linejoin:round; stroke-width:4; stroke-opacity:1; fill:none" points="279.759,1423.18 279.759,1404.28 "></polyline>
<polyline clip-path="url(#clip940)" style="stroke:#000000; stroke-linecap:round; stroke-linejoin:round; stroke-width:4; stroke-opacity:1; fill:none" points="782.913,1423.18 782.913,1404.28 "></polyline>
<polyline clip-path="url(#clip940)" style="stroke:#000000; stroke-linecap:round; stroke-linejoin:round; stroke-width:4; stroke-opacity:1; fill:none" points="1286.07,1423.18 1286.07,1404.28 "></polyline>
<polyline clip-path="url(#clip940)" style="stroke:#000000; stroke-linecap:round; stroke-linejoin:round; stroke-width:4; stroke-opacity:1; fill:none" points="1789.22,1423.18 1789.22,1404.28 "></polyline>
<polyline clip-path="url(#clip940)" style="stroke:#000000; stroke-linecap:round; stroke-linejoin:round; stroke-width:4; stroke-opacity:1; fill:none" points="2292.38,1423.18 2292.38,1404.28 "></polyline>
<path clip-path="url(#clip940)" d="M231.831 1481.64 L239.47 1481.64 L239.47 1455.28 L231.159 1456.95 L231.159 1452.69 L239.423 1451.02 L244.099 1451.02 L244.099 1481.64 L251.738 1481.64 L251.738 1485.58 L231.831 1485.58 L231.831 1481.64 Z" fill="#000000" fill-rule="nonzero" fill-opacity="1"></path><path clip-path="url(#clip940)" d="M261.182 1479.7 L266.067 1479.7 L266.067 1485.58 L261.182 1485.58 L261.182 1479.7 Z" fill="#000000" fill-rule="nonzero" fill-opacity="1"></path><path clip-path="url(#clip940)" d="M286.252 1454.1 Q282.641 1454.1 280.812 1457.66 Q279.006 1461.2 279.006 1468.33 Q279.006 1475.44 280.812 1479.01 Q282.641 1482.55 286.252 1482.55 Q289.886 1482.55 291.692 1479.01 Q293.52 1475.44 293.52 1468.33 Q293.52 1461.2 291.692 1457.66 Q289.886 1454.1 286.252 1454.1 M286.252 1450.39 Q292.062 1450.39 295.117 1455 Q298.196 1459.58 298.196 1468.33 Q298.196 1477.06 295.117 1481.67 Q292.062 1486.25 286.252 1486.25 Q280.442 1486.25 277.363 1481.67 Q274.307 1477.06 274.307 1468.33 Q274.307 1459.58 277.363 1455 Q280.442 1450.39 286.252 1450.39 Z" fill="#000000" fill-rule="nonzero" fill-opacity="1"></path><path clip-path="url(#clip940)" d="M316.414 1454.1 Q312.803 1454.1 310.974 1457.66 Q309.168 1461.2 309.168 1468.33 Q309.168 1475.44 310.974 1479.01 Q312.803 1482.55 316.414 1482.55 Q320.048 1482.55 321.853 1479.01 Q323.682 1475.44 323.682 1468.33 Q323.682 1461.2 321.853 1457.66 Q320.048 1454.1 316.414 1454.1 M316.414 1450.39 Q322.224 1450.39 325.279 1455 Q328.358 1459.58 328.358 1468.33 Q328.358 1477.06 325.279 1481.67 Q322.224 1486.25 316.414 1486.25 Q310.603 1486.25 307.525 1481.67 Q304.469 1477.06 304.469 1468.33 Q304.469 1459.58 307.525 1455 Q310.603 1450.39 316.414 1450.39 Z" fill="#000000" fill-rule="nonzero" fill-opacity="1"></path><path clip-path="url(#clip940)" d="M735.483 1481.64 L743.122 1481.64 L743.122 1455.28 L734.812 1456.95 L734.812 1452.69 L743.076 1451.02 L747.752 1451.02 L747.752 1481.64 L755.39 1481.64 L755.39 1485.58 L735.483 1485.58 L735.483 1481.64 Z" fill="#000000" fill-rule="nonzero" fill-opacity="1"></path><path clip-path="url(#clip940)" d="M764.835 1479.7 L769.719 1479.7 L769.719 1485.58 L764.835 1485.58 L764.835 1479.7 Z" fill="#000000" fill-rule="nonzero" fill-opacity="1"></path><path clip-path="url(#clip940)" d="M783.932 1481.64 L800.251 1481.64 L800.251 1485.58 L778.307 1485.58 L778.307 1481.64 Q780.969 1478.89 785.552 1474.26 Q790.159 1469.61 791.339 1468.27 Q793.585 1465.74 794.464 1464.01 Q795.367 1462.25 795.367 1460.56 Q795.367 1457.8 793.423 1456.07 Q791.501 1454.33 788.399 1454.33 Q786.2 1454.33 783.747 1455.09 Q781.316 1455.86 778.538 1457.41 L778.538 1452.69 Q781.362 1451.55 783.816 1450.97 Q786.27 1450.39 788.307 1450.39 Q793.677 1450.39 796.872 1453.08 Q800.066 1455.77 800.066 1460.26 Q800.066 1462.39 799.256 1464.31 Q798.469 1466.2 796.362 1468.8 Q795.784 1469.47 792.682 1472.69 Q789.58 1475.88 783.932 1481.64 Z" fill="#000000" fill-rule="nonzero" fill-opacity="1"></path><path clip-path="url(#clip940)" d="M810.112 1451.02 L828.469 1451.02 L828.469 1454.96 L814.395 1454.96 L814.395 1463.43 Q815.413 1463.08 816.432 1462.92 Q817.45 1462.73 818.469 1462.73 Q824.256 1462.73 827.635 1465.9 Q831.015 1469.08 831.015 1474.49 Q831.015 1480.07 827.543 1483.17 Q824.071 1486.25 817.751 1486.25 Q815.575 1486.25 813.307 1485.88 Q811.061 1485.51 808.654 1484.77 L808.654 1480.07 Q810.737 1481.2 812.96 1481.76 Q815.182 1482.32 817.659 1482.32 Q821.663 1482.32 824.001 1480.21 Q826.339 1478.1 826.339 1474.49 Q826.339 1470.88 824.001 1468.77 Q821.663 1466.67 817.659 1466.67 Q815.784 1466.67 813.909 1467.08 Q812.057 1467.5 810.112 1468.38 L810.112 1451.02 Z" fill="#000000" fill-rule="nonzero" fill-opacity="1"></path><path clip-path="url(#clip940)" d="M1238.14 1481.64 L1245.78 1481.64 L1245.78 1455.28 L1237.47 1456.95 L1237.47 1452.69 L1245.73 1451.02 L1250.41 1451.02 L1250.41 1481.64 L1258.05 1481.64 L1258.05 1485.58 L1238.14 1485.58 L1238.14 1481.64 Z" fill="#000000" fill-rule="nonzero" fill-opacity="1"></path><path clip-path="url(#clip940)" d="M1267.49 1479.7 L1272.38 1479.7 L1272.38 1485.58 L1267.49 1485.58 L1267.49 1479.7 Z" fill="#000000" fill-rule="nonzero" fill-opacity="1"></path><path clip-path="url(#clip940)" d="M1282.61 1451.02 L1300.96 1451.02 L1300.96 1454.96 L1286.89 1454.96 L1286.89 1463.43 Q1287.91 1463.08 1288.93 1462.92 Q1289.95 1462.73 1290.96 1462.73 Q1296.75 1462.73 1300.13 1465.9 Q1303.51 1469.08 1303.51 1474.49 Q1303.51 1480.07 1300.04 1483.17 Q1296.57 1486.25 1290.25 1486.25 Q1288.07 1486.25 1285.8 1485.88 Q1283.56 1485.51 1281.15 1484.77 L1281.15 1480.07 Q1283.23 1481.2 1285.45 1481.76 Q1287.68 1482.32 1290.15 1482.32 Q1294.16 1482.32 1296.5 1480.21 Q1298.83 1478.1 1298.83 1474.49 Q1298.83 1470.88 1296.5 1468.77 Q1294.16 1466.67 1290.15 1466.67 Q1288.28 1466.67 1286.4 1467.08 Q1284.55 1467.5 1282.61 1468.38 L1282.61 1451.02 Z" fill="#000000" fill-rule="nonzero" fill-opacity="1"></path><path clip-path="url(#clip940)" d="M1322.72 1454.1 Q1319.11 1454.1 1317.28 1457.66 Q1315.48 1461.2 1315.48 1468.33 Q1315.48 1475.44 1317.28 1479.01 Q1319.11 1482.55 1322.72 1482.55 Q1326.36 1482.55 1328.16 1479.01 Q1329.99 1475.44 1329.99 1468.33 Q1329.99 1461.2 1328.16 1457.66 Q1326.36 1454.1 1322.72 1454.1 M1322.72 1450.39 Q1328.53 1450.39 1331.59 1455 Q1334.67 1459.58 1334.67 1468.33 Q1334.67 1477.06 1331.59 1481.67 Q1328.53 1486.25 1322.72 1486.25 Q1316.91 1486.25 1313.83 1481.67 Q1310.78 1477.06 1310.78 1468.33 Q1310.78 1459.58 1313.83 1455 Q1316.91 1450.39 1322.72 1450.39 Z" fill="#000000" fill-rule="nonzero" fill-opacity="1"></path><path clip-path="url(#clip940)" d="M1741.79 1481.64 L1749.43 1481.64 L1749.43 1455.28 L1741.12 1456.95 L1741.12 1452.69 L1749.38 1451.02 L1754.06 1451.02 L1754.06 1481.64 L1761.7 1481.64 L1761.7 1485.58 L1741.79 1485.58 L1741.79 1481.64 Z" fill="#000000" fill-rule="nonzero" fill-opacity="1"></path><path clip-path="url(#clip940)" d="M1771.14 1479.7 L1776.03 1479.7 L1776.03 1485.58 L1771.14 1485.58 L1771.14 1479.7 Z" fill="#000000" fill-rule="nonzero" fill-opacity="1"></path><path clip-path="url(#clip940)" d="M1785.03 1451.02 L1807.25 1451.02 L1807.25 1453.01 L1794.71 1485.58 L1789.82 1485.58 L1801.63 1454.96 L1785.03 1454.96 L1785.03 1451.02 Z" fill="#000000" fill-rule="nonzero" fill-opacity="1"></path><path clip-path="url(#clip940)" d="M1816.42 1451.02 L1834.78 1451.02 L1834.78 1454.96 L1820.7 1454.96 L1820.7 1463.43 Q1821.72 1463.08 1822.74 1462.92 Q1823.76 1462.73 1824.78 1462.73 Q1830.57 1462.73 1833.94 1465.9 Q1837.32 1469.08 1837.32 1474.49 Q1837.32 1480.07 1833.85 1483.17 Q1830.38 1486.25 1824.06 1486.25 Q1821.88 1486.25 1819.62 1485.88 Q1817.37 1485.51 1814.96 1484.77 L1814.96 1480.07 Q1817.05 1481.2 1819.27 1481.76 Q1821.49 1482.32 1823.97 1482.32 Q1827.97 1482.32 1830.31 1480.21 Q1832.65 1478.1 1832.65 1474.49 Q1832.65 1470.88 1830.31 1468.77 Q1827.97 1466.67 1823.97 1466.67 Q1822.09 1466.67 1820.22 1467.08 Q1818.37 1467.5 1816.42 1468.38 L1816.42 1451.02 Z" fill="#000000" fill-rule="nonzero" fill-opacity="1"></path><path clip-path="url(#clip940)" d="M2248.53 1481.64 L2264.85 1481.64 L2264.85 1485.58 L2242.91 1485.58 L2242.91 1481.64 Q2245.57 1478.89 2250.16 1474.26 Q2254.76 1469.61 2255.94 1468.27 Q2258.19 1465.74 2259.07 1464.01 Q2259.97 1462.25 2259.97 1460.56 Q2259.97 1457.8 2258.03 1456.07 Q2256.1 1454.33 2253 1454.33 Q2250.8 1454.33 2248.35 1455.09 Q2245.92 1455.86 2243.14 1457.41 L2243.14 1452.69 Q2245.97 1451.55 2248.42 1450.97 Q2250.87 1450.39 2252.91 1450.39 Q2258.28 1450.39 2261.47 1453.08 Q2264.67 1455.77 2264.67 1460.26 Q2264.67 1462.39 2263.86 1464.31 Q2263.07 1466.2 2260.97 1468.8 Q2260.39 1469.47 2257.28 1472.69 Q2254.18 1475.88 2248.53 1481.64 Z" fill="#000000" fill-rule="nonzero" fill-opacity="1"></path><path clip-path="url(#clip940)" d="M2274.67 1479.7 L2279.55 1479.7 L2279.55 1485.58 L2274.67 1485.58 L2274.67 1479.7 Z" fill="#000000" fill-rule="nonzero" fill-opacity="1"></path><path clip-path="url(#clip940)" d="M2299.74 1454.1 Q2296.13 1454.1 2294.3 1457.66 Q2292.49 1461.2 2292.49 1468.33 Q2292.49 1475.44 2294.3 1479.01 Q2296.13 1482.55 2299.74 1482.55 Q2303.37 1482.55 2305.18 1479.01 Q2307.01 1475.44 2307.01 1468.33 Q2307.01 1461.2 2305.18 1457.66 Q2303.37 1454.1 2299.74 1454.1 M2299.74 1450.39 Q2305.55 1450.39 2308.6 1455 Q2311.68 1459.58 2311.68 1468.33 Q2311.68 1477.06 2308.6 1481.67 Q2305.55 1486.25 2299.74 1486.25 Q2293.93 1486.25 2290.85 1481.67 Q2287.79 1477.06 2287.79 1468.33 Q2287.79 1459.58 2290.85 1455 Q2293.93 1450.39 2299.74 1450.39 Z" fill="#000000" fill-rule="nonzero" fill-opacity="1"></path><path clip-path="url(#clip940)" d="M2329.9 1454.1 Q2326.29 1454.1 2324.46 1457.66 Q2322.65 1461.2 2322.65 1468.33 Q2322.65 1475.44 2324.46 1479.01 Q2326.29 1482.55 2329.9 1482.55 Q2333.53 1482.55 2335.34 1479.01 Q2337.17 1475.44 2337.17 1468.33 Q2337.17 1461.2 2335.34 1457.66 Q2333.53 1454.1 2329.9 1454.1 M2329.9 1450.39 Q2335.71 1450.39 2338.77 1455 Q2341.84 1459.58 2341.84 1468.33 Q2341.84 1477.06 2338.77 1481.67 Q2335.71 1486.25 2329.9 1486.25 Q2324.09 1486.25 2321.01 1481.67 Q2317.96 1477.06 2317.96 1468.33 Q2317.96 1459.58 2321.01 1455 Q2324.09 1450.39 2329.9 1450.39 Z" fill="#000000" fill-rule="nonzero" fill-opacity="1"></path><path clip-path="url(#clip940)" d="M1302.68 1532.4 L1289.79 1549.74 L1303.35 1568.04 L1296.44 1568.04 L1286.07 1554.04 L1275.69 1568.04 L1268.79 1568.04 L1282.63 1549.39 L1269.96 1532.4 L1276.87 1532.4 L1286.32 1545.1 L1295.78 1532.4 L1302.68 1532.4 Z" fill="#000000" fill-rule="nonzero" fill-opacity="1"></path><polyline clip-path="url(#clip942)" style="stroke:#000000; stroke-linecap:round; stroke-linejoin:round; stroke-width:2; stroke-opacity:0.1; fill:none" points="219.38,1386.4 2352.76,1386.4 "></polyline>
<polyline clip-path="url(#clip942)" style="stroke:#000000; stroke-linecap:round; stroke-linejoin:round; stroke-width:2; stroke-opacity:0.1; fill:none" points="219.38,1079.86 2352.76,1079.86 "></polyline>
<polyline clip-path="url(#clip942)" style="stroke:#000000; stroke-linecap:round; stroke-linejoin:round; stroke-width:2; stroke-opacity:0.1; fill:none" points="219.38,773.326 2352.76,773.326 "></polyline>
<polyline clip-path="url(#clip942)" style="stroke:#000000; stroke-linecap:round; stroke-linejoin:round; stroke-width:2; stroke-opacity:0.1; fill:none" points="219.38,466.791 2352.76,466.791 "></polyline>
<polyline clip-path="url(#clip942)" style="stroke:#000000; stroke-linecap:round; stroke-linejoin:round; stroke-width:2; stroke-opacity:0.1; fill:none" points="219.38,160.256 2352.76,160.256 "></polyline>
<polyline clip-path="url(#clip940)" style="stroke:#000000; stroke-linecap:round; stroke-linejoin:round; stroke-width:4; stroke-opacity:1; fill:none" points="219.38,1423.18 219.38,123.472 "></polyline>
<polyline clip-path="url(#clip940)" style="stroke:#000000; stroke-linecap:round; stroke-linejoin:round; stroke-width:4; stroke-opacity:1; fill:none" points="219.38,1386.4 238.278,1386.4 "></polyline>
<polyline clip-path="url(#clip940)" style="stroke:#000000; stroke-linecap:round; stroke-linejoin:round; stroke-width:4; stroke-opacity:1; fill:none" points="219.38,1079.86 238.278,1079.86 "></polyline>
<polyline clip-path="url(#clip940)" style="stroke:#000000; stroke-linecap:round; stroke-linejoin:round; stroke-width:4; stroke-opacity:1; fill:none" points="219.38,773.326 238.278,773.326 "></polyline>
<polyline clip-path="url(#clip940)" style="stroke:#000000; stroke-linecap:round; stroke-linejoin:round; stroke-width:4; stroke-opacity:1; fill:none" points="219.38,466.791 238.278,466.791 "></polyline>
<polyline clip-path="url(#clip940)" style="stroke:#000000; stroke-linecap:round; stroke-linejoin:round; stroke-width:4; stroke-opacity:1; fill:none" points="219.38,160.256 238.278,160.256 "></polyline>
<path clip-path="url(#clip940)" d="M126.205 1372.19 Q122.593 1372.19 120.765 1375.76 Q118.959 1379.3 118.959 1386.43 Q118.959 1393.54 120.765 1397.1 Q122.593 1400.64 126.205 1400.64 Q129.839 1400.64 131.644 1397.1 Q133.473 1393.54 133.473 1386.43 Q133.473 1379.3 131.644 1375.76 Q129.839 1372.19 126.205 1372.19 M126.205 1368.49 Q132.015 1368.49 135.07 1373.1 Q138.149 1377.68 138.149 1386.43 Q138.149 1395.16 135.07 1399.76 Q132.015 1404.35 126.205 1404.35 Q120.394 1404.35 117.316 1399.76 Q114.26 1395.16 114.26 1386.43 Q114.26 1377.68 117.316 1373.1 Q120.394 1368.49 126.205 1368.49 Z" fill="#000000" fill-rule="nonzero" fill-opacity="1"></path><path clip-path="url(#clip940)" d="M146.366 1397.8 L151.251 1397.8 L151.251 1403.68 L146.366 1403.68 L146.366 1397.8 Z" fill="#000000" fill-rule="nonzero" fill-opacity="1"></path><path clip-path="url(#clip940)" d="M171.436 1372.19 Q167.825 1372.19 165.996 1375.76 Q164.19 1379.3 164.19 1386.43 Q164.19 1393.54 165.996 1397.1 Q167.825 1400.64 171.436 1400.64 Q175.07 1400.64 176.876 1397.1 Q178.704 1393.54 178.704 1386.43 Q178.704 1379.3 176.876 1375.76 Q175.07 1372.19 171.436 1372.19 M171.436 1368.49 Q177.246 1368.49 180.301 1373.1 Q183.38 1377.68 183.38 1386.43 Q183.38 1395.16 180.301 1399.76 Q177.246 1404.35 171.436 1404.35 Q165.626 1404.35 162.547 1399.76 Q159.491 1395.16 159.491 1386.43 Q159.491 1377.68 162.547 1373.1 Q165.626 1368.49 171.436 1368.49 Z" fill="#000000" fill-rule="nonzero" fill-opacity="1"></path><path clip-path="url(#clip940)" d="M127.2 1065.66 Q123.589 1065.66 121.76 1069.22 Q119.955 1072.77 119.955 1079.9 Q119.955 1087 121.76 1090.57 Q123.589 1094.11 127.2 1094.11 Q130.834 1094.11 132.64 1090.57 Q134.468 1087 134.468 1079.9 Q134.468 1072.77 132.64 1069.22 Q130.834 1065.66 127.2 1065.66 M127.2 1061.96 Q133.01 1061.96 136.066 1066.56 Q139.144 1071.15 139.144 1079.9 Q139.144 1088.62 136.066 1093.23 Q133.01 1097.81 127.2 1097.81 Q121.39 1097.81 118.311 1093.23 Q115.256 1088.62 115.256 1079.9 Q115.256 1071.15 118.311 1066.56 Q121.39 1061.96 127.2 1061.96 Z" fill="#000000" fill-rule="nonzero" fill-opacity="1"></path><path clip-path="url(#clip940)" d="M147.362 1091.26 L152.246 1091.26 L152.246 1097.14 L147.362 1097.14 L147.362 1091.26 Z" fill="#000000" fill-rule="nonzero" fill-opacity="1"></path><path clip-path="url(#clip940)" d="M162.477 1062.58 L180.834 1062.58 L180.834 1066.52 L166.76 1066.52 L166.76 1074.99 Q167.778 1074.64 168.797 1074.48 Q169.815 1074.29 170.834 1074.29 Q176.621 1074.29 180.001 1077.47 Q183.38 1080.64 183.38 1086.05 Q183.38 1091.63 179.908 1094.73 Q176.436 1097.81 170.116 1097.81 Q167.94 1097.81 165.672 1097.44 Q163.427 1097.07 161.019 1096.33 L161.019 1091.63 Q163.102 1092.77 165.325 1093.32 Q167.547 1093.88 170.024 1093.88 Q174.028 1093.88 176.366 1091.77 Q178.704 1089.66 178.704 1086.05 Q178.704 1082.44 176.366 1080.34 Q174.028 1078.23 170.024 1078.23 Q168.149 1078.23 166.274 1078.65 Q164.422 1079.06 162.477 1079.94 L162.477 1062.58 Z" fill="#000000" fill-rule="nonzero" fill-opacity="1"></path><path clip-path="url(#clip940)" d="M117.015 786.671 L124.654 786.671 L124.654 760.305 L116.343 761.972 L116.343 757.713 L124.607 756.046 L129.283 756.046 L129.283 786.671 L136.922 786.671 L136.922 790.606 L117.015 790.606 L117.015 786.671 Z" fill="#000000" fill-rule="nonzero" fill-opacity="1"></path><path clip-path="url(#clip940)" d="M146.366 784.726 L151.251 784.726 L151.251 790.606 L146.366 790.606 L146.366 784.726 Z" fill="#000000" fill-rule="nonzero" fill-opacity="1"></path><path clip-path="url(#clip940)" d="M171.436 759.125 Q167.825 759.125 165.996 762.689 Q164.19 766.231 164.19 773.361 Q164.19 780.467 165.996 784.032 Q167.825 787.574 171.436 787.574 Q175.07 787.574 176.876 784.032 Q178.704 780.467 178.704 773.361 Q178.704 766.231 176.876 762.689 Q175.07 759.125 171.436 759.125 M171.436 755.421 Q177.246 755.421 180.301 760.027 Q183.38 764.611 183.38 773.361 Q183.38 782.088 180.301 786.694 Q177.246 791.277 171.436 791.277 Q165.626 791.277 162.547 786.694 Q159.491 782.088 159.491 773.361 Q159.491 764.611 162.547 760.027 Q165.626 755.421 171.436 755.421 Z" fill="#000000" fill-rule="nonzero" fill-opacity="1"></path><path clip-path="url(#clip940)" d="M118.01 480.136 L125.649 480.136 L125.649 453.77 L117.339 455.437 L117.339 451.178 L125.603 449.511 L130.279 449.511 L130.279 480.136 L137.917 480.136 L137.917 484.071 L118.01 484.071 L118.01 480.136 Z" fill="#000000" fill-rule="nonzero" fill-opacity="1"></path><path clip-path="url(#clip940)" d="M147.362 478.192 L152.246 478.192 L152.246 484.071 L147.362 484.071 L147.362 478.192 Z" fill="#000000" fill-rule="nonzero" fill-opacity="1"></path><path clip-path="url(#clip940)" d="M162.477 449.511 L180.834 449.511 L180.834 453.446 L166.76 453.446 L166.76 461.918 Q167.778 461.571 168.797 461.409 Q169.815 461.224 170.834 461.224 Q176.621 461.224 180.001 464.395 Q183.38 467.567 183.38 472.983 Q183.38 478.562 179.908 481.664 Q176.436 484.742 170.116 484.742 Q167.94 484.742 165.672 484.372 Q163.427 484.002 161.019 483.261 L161.019 478.562 Q163.102 479.696 165.325 480.252 Q167.547 480.807 170.024 480.807 Q174.028 480.807 176.366 478.701 Q178.704 476.594 178.704 472.983 Q178.704 469.372 176.366 467.266 Q174.028 465.159 170.024 465.159 Q168.149 465.159 166.274 465.576 Q164.422 465.993 162.477 466.872 L162.477 449.511 Z" fill="#000000" fill-rule="nonzero" fill-opacity="1"></path><path clip-path="url(#clip940)" d="M120.232 173.601 L136.552 173.601 L136.552 177.536 L114.607 177.536 L114.607 173.601 Q117.269 170.847 121.853 166.217 Q126.459 161.564 127.64 160.222 Q129.885 157.698 130.765 155.962 Q131.667 154.203 131.667 152.513 Q131.667 149.759 129.723 148.023 Q127.802 146.286 124.7 146.286 Q122.501 146.286 120.047 147.05 Q117.617 147.814 114.839 149.365 L114.839 144.643 Q117.663 143.509 120.117 142.93 Q122.57 142.351 124.607 142.351 Q129.978 142.351 133.172 145.036 Q136.367 147.722 136.367 152.212 Q136.367 154.342 135.556 156.263 Q134.769 158.161 132.663 160.754 Q132.084 161.425 128.982 164.643 Q125.88 167.837 120.232 173.601 Z" fill="#000000" fill-rule="nonzero" fill-opacity="1"></path><path clip-path="url(#clip940)" d="M146.366 171.657 L151.251 171.657 L151.251 177.536 L146.366 177.536 L146.366 171.657 Z" fill="#000000" fill-rule="nonzero" fill-opacity="1"></path><path clip-path="url(#clip940)" d="M171.436 146.055 Q167.825 146.055 165.996 149.62 Q164.19 153.161 164.19 160.291 Q164.19 167.397 165.996 170.962 Q167.825 174.504 171.436 174.504 Q175.07 174.504 176.876 170.962 Q178.704 167.397 178.704 160.291 Q178.704 153.161 176.876 149.62 Q175.07 146.055 171.436 146.055 M171.436 142.351 Q177.246 142.351 180.301 146.958 Q183.38 151.541 183.38 160.291 Q183.38 169.018 180.301 173.624 Q177.246 178.208 171.436 178.208 Q165.626 178.208 162.547 173.624 Q159.491 169.018 159.491 160.291 Q159.491 151.541 162.547 146.958 Q165.626 142.351 171.436 142.351 Z" fill="#000000" fill-rule="nonzero" fill-opacity="1"></path><path clip-path="url(#clip940)" d="M67.3143 771.639 Q73.68 774.122 75.6216 776.477 Q77.5631 778.832 77.5631 782.779 L77.5631 787.458 L72.6615 787.458 L72.6615 784.02 Q72.6615 781.601 71.5157 780.265 Q70.3699 778.928 66.1048 777.305 L63.4312 776.254 L28.3562 790.673 L28.3562 784.466 L56.238 773.326 L28.3562 762.186 L28.3562 755.979 L67.3143 771.639 Z" fill="#000000" fill-rule="nonzero" fill-opacity="1"></path><path clip-path="url(#clip940)" d="M756.635 16.7545 L756.635 25.383 Q752.503 21.5346 747.804 19.6307 Q743.146 17.7268 737.879 17.7268 Q727.509 17.7268 722 24.0867 Q716.491 30.4061 716.491 42.3968 Q716.491 54.3469 722 60.7069 Q727.509 67.0263 737.879 67.0263 Q743.146 67.0263 747.804 65.1223 Q752.503 63.2184 756.635 59.3701 L756.635 67.9175 Q752.341 70.8341 747.521 72.2924 Q742.741 73.7508 737.393 73.7508 Q723.661 73.7508 715.761 65.3654 Q707.862 56.9395 707.862 42.3968 Q707.862 27.8135 715.761 19.4281 Q723.661 11.0023 737.393 11.0023 Q742.822 11.0023 747.602 12.4606 Q752.422 13.8784 756.635 16.7545 Z" fill="#000000" fill-rule="nonzero" fill-opacity="1"></path><path clip-path="url(#clip940)" d="M786.531 32.4315 Q780.535 32.4315 777.052 37.1306 Q773.568 41.7891 773.568 49.9314 Q773.568 58.0738 777.011 62.7728 Q780.495 67.4314 786.531 67.4314 Q792.486 67.4314 795.969 62.7323 Q799.453 58.0333 799.453 49.9314 Q799.453 41.8701 795.969 37.1711 Q792.486 32.4315 786.531 32.4315 M786.531 26.1121 Q796.253 26.1121 801.803 32.4315 Q807.352 38.7509 807.352 49.9314 Q807.352 61.0714 801.803 67.4314 Q796.253 73.7508 786.531 73.7508 Q776.768 73.7508 771.218 67.4314 Q765.709 61.0714 765.709 49.9314 Q765.709 38.7509 771.218 32.4315 Q776.768 26.1121 786.531 26.1121 Z" fill="#000000" fill-rule="nonzero" fill-opacity="1"></path><path clip-path="url(#clip940)" d="M855.032 35.9153 Q857.827 30.8922 861.716 28.5022 Q865.604 26.1121 870.871 26.1121 Q877.96 26.1121 881.808 31.0947 Q885.656 36.0368 885.656 45.1919 L885.656 72.576 L878.162 72.576 L878.162 45.4349 Q878.162 38.913 875.853 35.7533 Q873.544 32.5936 868.805 32.5936 Q863.012 32.5936 859.65 36.4419 Q856.287 40.2903 856.287 46.9338 L856.287 72.576 L848.793 72.576 L848.793 45.4349 Q848.793 38.8725 846.484 35.7533 Q844.175 32.5936 839.355 32.5936 Q833.643 32.5936 830.281 36.4824 Q826.918 40.3308 826.918 46.9338 L826.918 72.576 L819.424 72.576 L819.424 27.2059 L826.918 27.2059 L826.918 34.2544 Q829.47 30.082 833.035 28.0971 Q836.6 26.1121 841.502 26.1121 Q846.444 26.1121 849.887 28.6237 Q853.371 31.1352 855.032 35.9153 Z" fill="#000000" fill-rule="nonzero" fill-opacity="1"></path><path clip-path="url(#clip940)" d="M907.734 65.7705 L907.734 89.8329 L900.24 89.8329 L900.24 27.2059 L907.734 27.2059 L907.734 34.0924 Q910.083 30.0415 913.648 28.0971 Q917.253 26.1121 922.236 26.1121 Q930.5 26.1121 935.645 32.6746 Q940.83 39.2371 940.83 49.9314 Q940.83 60.6258 935.645 67.1883 Q930.5 73.7508 922.236 73.7508 Q917.253 73.7508 913.648 71.8063 Q910.083 69.8214 907.734 65.7705 M933.092 49.9314 Q933.092 41.7081 929.69 37.0496 Q926.327 32.3505 920.413 32.3505 Q914.499 32.3505 911.096 37.0496 Q907.734 41.7081 907.734 49.9314 Q907.734 58.1548 911.096 62.8538 Q914.499 67.5124 920.413 67.5124 Q926.327 67.5124 929.69 62.8538 Q933.092 58.1548 933.092 49.9314 Z" fill="#000000" fill-rule="nonzero" fill-opacity="1"></path><path clip-path="url(#clip940)" d="M973.804 49.7694 Q964.771 49.7694 961.287 51.8354 Q957.803 53.9013 957.803 58.8839 Q957.803 62.8538 960.396 65.2034 Q963.029 67.5124 967.525 67.5124 Q973.723 67.5124 977.45 63.1374 Q981.217 58.7219 981.217 51.4303 L981.217 49.7694 L973.804 49.7694 M988.671 46.6907 L988.671 72.576 L981.217 72.576 L981.217 65.6895 Q978.665 69.8214 974.857 71.8063 Q971.049 73.7508 965.54 73.7508 Q958.573 73.7508 954.441 69.8619 Q950.349 65.9325 950.349 59.3701 Q950.349 51.7138 955.453 47.825 Q960.598 43.9361 970.766 43.9361 L981.217 43.9361 L981.217 43.2069 Q981.217 38.0623 977.814 35.2672 Q974.452 32.4315 968.335 32.4315 Q964.446 32.4315 960.76 33.3632 Q957.074 34.295 953.671 36.1584 L953.671 29.2718 Q957.762 27.692 961.611 26.9223 Q965.459 26.1121 969.105 26.1121 Q978.949 26.1121 983.81 31.2163 Q988.671 36.3204 988.671 46.6907 Z" fill="#000000" fill-rule="nonzero" fill-opacity="1"></path><path clip-path="url(#clip940)" d="M1030.31 34.1734 Q1029.06 33.4443 1027.56 33.1202 Q1026.1 32.7556 1024.32 32.7556 Q1018 32.7556 1014.6 36.8875 Q1011.23 40.9789 1011.23 48.6757 L1011.23 72.576 L1003.74 72.576 L1003.74 27.2059 L1011.23 27.2059 L1011.23 34.2544 Q1013.58 30.1225 1017.35 28.1376 Q1021.12 26.1121 1026.51 26.1121 Q1027.28 26.1121 1028.21 26.2337 Q1029.14 26.3147 1030.27 26.5172 L1030.31 34.1734 Z" fill="#000000" fill-rule="nonzero" fill-opacity="1"></path><path clip-path="url(#clip940)" d="M1058.75 49.7694 Q1049.72 49.7694 1046.23 51.8354 Q1042.75 53.9013 1042.75 58.8839 Q1042.75 62.8538 1045.34 65.2034 Q1047.98 67.5124 1052.47 67.5124 Q1058.67 67.5124 1062.4 63.1374 Q1066.16 58.7219 1066.16 51.4303 L1066.16 49.7694 L1058.75 49.7694 M1073.62 46.6907 L1073.62 72.576 L1066.16 72.576 L1066.16 65.6895 Q1063.61 69.8214 1059.8 71.8063 Q1056 73.7508 1050.49 73.7508 Q1043.52 73.7508 1039.39 69.8619 Q1035.3 65.9325 1035.3 59.3701 Q1035.3 51.7138 1040.4 47.825 Q1045.55 43.9361 1055.71 43.9361 L1066.16 43.9361 L1066.16 43.2069 Q1066.16 38.0623 1062.76 35.2672 Q1059.4 32.4315 1053.28 32.4315 Q1049.39 32.4315 1045.71 33.3632 Q1042.02 34.295 1038.62 36.1584 L1038.62 29.2718 Q1042.71 27.692 1046.56 26.9223 Q1050.41 26.1121 1054.05 26.1121 Q1063.9 26.1121 1068.76 31.2163 Q1073.62 36.3204 1073.62 46.6907 Z" fill="#000000" fill-rule="nonzero" fill-opacity="1"></path><path clip-path="url(#clip940)" d="M1121.62 28.9478 L1121.62 35.9153 Q1118.46 34.1734 1115.26 33.3227 Q1112.1 32.4315 1108.86 32.4315 Q1101.61 32.4315 1097.6 37.0496 Q1093.59 41.6271 1093.59 49.9314 Q1093.59 58.2358 1097.6 62.8538 Q1101.61 67.4314 1108.86 67.4314 Q1112.1 67.4314 1115.26 66.5807 Q1118.46 65.6895 1121.62 63.9476 L1121.62 70.8341 Q1118.5 72.2924 1115.14 73.0216 Q1111.82 73.7508 1108.05 73.7508 Q1097.8 73.7508 1091.77 67.3098 Q1085.73 60.8689 1085.73 49.9314 Q1085.73 38.832 1091.81 32.472 Q1097.92 26.1121 1108.54 26.1121 Q1111.98 26.1121 1115.26 26.8413 Q1118.54 27.5299 1121.62 28.9478 Z" fill="#000000" fill-rule="nonzero" fill-opacity="1"></path><path clip-path="url(#clip940)" d="M1134.58 27.2059 L1142.04 27.2059 L1142.04 72.576 L1134.58 72.576 L1134.58 27.2059 M1134.58 9.54393 L1142.04 9.54393 L1142.04 18.9825 L1134.58 18.9825 L1134.58 9.54393 Z" fill="#000000" fill-rule="nonzero" fill-opacity="1"></path><path clip-path="url(#clip940)" d="M1175.22 32.4315 Q1169.22 32.4315 1165.74 37.1306 Q1162.25 41.7891 1162.25 49.9314 Q1162.25 58.0738 1165.7 62.7728 Q1169.18 67.4314 1175.22 67.4314 Q1181.17 67.4314 1184.65 62.7323 Q1188.14 58.0333 1188.14 49.9314 Q1188.14 41.8701 1184.65 37.1711 Q1181.17 32.4315 1175.22 32.4315 M1175.22 26.1121 Q1184.94 26.1121 1190.49 32.4315 Q1196.04 38.7509 1196.04 49.9314 Q1196.04 61.0714 1190.49 67.4314 Q1184.94 73.7508 1175.22 73.7508 Q1165.45 73.7508 1159.9 67.4314 Q1154.39 61.0714 1154.39 49.9314 Q1154.39 38.7509 1159.9 32.4315 Q1165.45 26.1121 1175.22 26.1121 M1180.85 6.22219 L1188.91 6.22219 L1175.7 21.4536 L1169.5 21.4536 L1180.85 6.22219 Z" fill="#000000" fill-rule="nonzero" fill-opacity="1"></path><path clip-path="url(#clip940)" d="M1246.11 45.1919 L1246.11 72.576 L1238.65 72.576 L1238.65 45.4349 Q1238.65 38.994 1236.14 35.7938 Q1233.63 32.5936 1228.61 32.5936 Q1222.57 32.5936 1219.09 36.4419 Q1215.6 40.2903 1215.6 46.9338 L1215.6 72.576 L1208.11 72.576 L1208.11 27.2059 L1215.6 27.2059 L1215.6 34.2544 Q1218.28 30.163 1221.88 28.1376 Q1225.53 26.1121 1230.27 26.1121 Q1238.09 26.1121 1242.1 30.9732 Q1246.11 35.7938 1246.11 45.1919 Z" fill="#000000" fill-rule="nonzero" fill-opacity="1"></path><path clip-path="url(#clip940)" d="M1317.2 34.0924 L1317.2 9.54393 L1324.65 9.54393 L1324.65 72.576 L1317.2 72.576 L1317.2 65.7705 Q1314.85 69.8214 1311.24 71.8063 Q1307.68 73.7508 1302.66 73.7508 Q1294.43 73.7508 1289.25 67.1883 Q1284.1 60.6258 1284.1 49.9314 Q1284.1 39.2371 1289.25 32.6746 Q1294.43 26.1121 1302.66 26.1121 Q1307.68 26.1121 1311.24 28.0971 Q1314.85 30.0415 1317.2 34.0924 M1291.8 49.9314 Q1291.8 58.1548 1295.16 62.8538 Q1298.57 67.5124 1304.48 67.5124 Q1310.39 67.5124 1313.8 62.8538 Q1317.2 58.1548 1317.2 49.9314 Q1317.2 41.7081 1313.8 37.0496 Q1310.39 32.3505 1304.48 32.3505 Q1298.57 32.3505 1295.16 37.0496 Q1291.8 41.7081 1291.8 49.9314 Z" fill="#000000" fill-rule="nonzero" fill-opacity="1"></path><path clip-path="url(#clip940)" d="M1378.81 48.0275 L1378.81 51.6733 L1344.54 51.6733 Q1345.03 59.3701 1349.16 63.421 Q1353.33 67.4314 1360.75 67.4314 Q1365.04 67.4314 1369.05 66.3781 Q1373.1 65.3249 1377.07 63.2184 L1377.07 70.267 Q1373.06 71.9684 1368.85 72.8596 Q1364.64 73.7508 1360.3 73.7508 Q1349.44 73.7508 1343.08 67.4314 Q1336.77 61.1119 1336.77 50.3365 Q1336.77 39.1965 1342.76 32.6746 Q1348.8 26.1121 1359 26.1121 Q1368.16 26.1121 1373.47 32.0264 Q1378.81 37.9003 1378.81 48.0275 M1371.36 45.84 Q1371.28 39.7232 1367.92 36.0774 Q1364.59 32.4315 1359.09 32.4315 Q1352.85 32.4315 1349.08 35.9558 Q1345.35 39.4801 1344.79 45.8805 L1371.36 45.84 Z" fill="#000000" fill-rule="nonzero" fill-opacity="1"></path><path clip-path="url(#clip940)" d="M1436.3 76.7889 Q1433.14 84.8907 1430.14 87.3618 Q1427.14 89.8329 1422.12 89.8329 L1416.16 89.8329 L1416.16 83.5945 L1420.54 83.5945 Q1423.62 83.5945 1425.32 82.1361 Q1427.02 80.6778 1429.09 75.2496 L1430.42 71.8468 L1412.07 27.2059 L1419.97 27.2059 L1434.15 62.6918 L1448.33 27.2059 L1456.23 27.2059 L1436.3 76.7889 Z" fill="#000000" fill-rule="nonzero" fill-opacity="1"></path><path clip-path="url(#clip940)" d="M1484.42 9.62495 Q1478.99 18.942 1476.36 28.0566 Q1473.73 37.1711 1473.73 46.5287 Q1473.73 55.8863 1476.36 65.0818 Q1479.03 74.2369 1484.42 83.5134 L1477.94 83.5134 Q1471.86 73.9938 1468.82 64.7983 Q1465.83 55.6027 1465.83 46.5287 Q1465.83 37.4952 1468.82 28.3401 Q1471.82 19.1851 1477.94 9.62495 L1484.42 9.62495 Z" fill="#000000" fill-rule="nonzero" fill-opacity="1"></path><path clip-path="url(#clip940)" d="M1536.6 27.2059 L1520.19 49.2833 L1537.45 72.576 L1528.66 72.576 L1515.45 54.752 L1502.24 72.576 L1493.45 72.576 L1511.08 48.8377 L1494.95 27.2059 L1503.74 27.2059 L1515.77 43.369 L1527.81 27.2059 L1536.6 27.2059 Z" fill="#000000" fill-rule="nonzero" fill-opacity="1"></path><path clip-path="url(#clip940)" d="M1546.8 9.62495 L1553.29 9.62495 Q1559.36 19.1851 1562.36 28.3401 Q1565.4 37.4952 1565.4 46.5287 Q1565.4 55.6027 1562.36 64.7983 Q1559.36 73.9938 1553.29 83.5134 L1546.8 83.5134 Q1552.19 74.2369 1554.83 65.0818 Q1557.5 55.8863 1557.5 46.5287 Q1557.5 37.1711 1554.83 28.0566 Q1552.19 18.942 1546.8 9.62495 Z" fill="#000000" fill-rule="nonzero" fill-opacity="1"></path><path clip-path="url(#clip940)" d="M1625.59 76.7889 Q1622.43 84.8907 1619.44 87.3618 Q1616.44 89.8329 1611.42 89.8329 L1605.46 89.8329 L1605.46 83.5945 L1609.84 83.5945 Q1612.92 83.5945 1614.62 82.1361 Q1616.32 80.6778 1618.38 75.2496 L1619.72 71.8468 L1601.37 27.2059 L1609.27 27.2059 L1623.45 62.6918 L1637.63 27.2059 L1645.53 27.2059 L1625.59 76.7889 Z" fill="#000000" fill-rule="nonzero" fill-opacity="1"></path><path clip-path="url(#clip940)" d="M1701.06 76.7889 Q1697.9 84.8907 1694.91 87.3618 Q1691.91 89.8329 1686.88 89.8329 L1680.93 89.8329 L1680.93 83.5945 L1685.3 83.5945 Q1688.38 83.5945 1690.08 82.1361 Q1691.79 80.6778 1693.85 75.2496 L1695.19 71.8468 L1676.84 27.2059 L1684.74 27.2059 L1698.92 62.6918 L1713.09 27.2059 L1720.99 27.2059 L1701.06 76.7889 Z" fill="#000000" fill-rule="nonzero" fill-opacity="1"></path><path clip-path="url(#clip940)" d="M1757.57 34.1734 Q1756.32 33.4443 1754.82 33.1202 Q1753.36 32.7556 1751.58 32.7556 Q1745.26 32.7556 1741.86 36.8875 Q1738.49 40.9789 1738.49 48.6757 L1738.49 72.576 L1731 72.576 L1731 27.2059 L1738.49 27.2059 L1738.49 34.2544 Q1740.84 30.1225 1744.61 28.1376 Q1748.38 26.1121 1753.77 26.1121 Q1754.53 26.1121 1755.47 26.2337 Q1756.4 26.3147 1757.53 26.5172 L1757.57 34.1734 Z" fill="#000000" fill-rule="nonzero" fill-opacity="1"></path><path clip-path="url(#clip940)" d="M1783.3 9.62495 Q1777.87 18.942 1775.23 28.0566 Q1772.6 37.1711 1772.6 46.5287 Q1772.6 55.8863 1775.23 65.0818 Q1777.91 74.2369 1783.3 83.5134 L1776.81 83.5134 Q1770.74 73.9938 1767.7 64.7983 Q1764.7 55.6027 1764.7 46.5287 Q1764.7 37.4952 1767.7 28.3401 Q1770.7 19.1851 1776.81 9.62495 L1783.3 9.62495 Z" fill="#000000" fill-rule="nonzero" fill-opacity="1"></path><path clip-path="url(#clip940)" d="M1835.47 27.2059 L1819.07 49.2833 L1836.32 72.576 L1827.53 72.576 L1814.33 54.752 L1801.12 72.576 L1792.33 72.576 L1809.95 48.8377 L1793.83 27.2059 L1802.62 27.2059 L1814.65 43.369 L1826.68 27.2059 L1835.47 27.2059 Z" fill="#000000" fill-rule="nonzero" fill-opacity="1"></path><path clip-path="url(#clip940)" d="M1845.68 9.62495 L1852.16 9.62495 Q1858.24 19.1851 1861.24 28.3401 Q1864.27 37.4952 1864.27 46.5287 Q1864.27 55.6027 1861.24 64.7983 Q1858.24 73.9938 1852.16 83.5134 L1845.68 83.5134 Q1851.07 74.2369 1853.7 65.0818 Q1856.37 55.8863 1856.37 46.5287 Q1856.37 37.1711 1853.7 28.0566 Q1851.07 18.942 1845.68 9.62495 Z" fill="#000000" fill-rule="nonzero" fill-opacity="1"></path><polyline clip-path="url(#clip942)" style="stroke:#009af9; stroke-linecap:round; stroke-linejoin:round; stroke-width:8; stroke-opacity:1; fill:none" points="279.759,773.326 481.021,705.578 682.282,638.374 883.544,571.215 1084.81,503.822 1286.07,436.049 1487.33,367.823 1688.59,299.115 1889.85,229.922 2091.12,160.256 2292.38,1386.4 "></polyline>
<polyline clip-path="url(#clip942)" style="stroke:#e26f46; stroke-linecap:round; stroke-linejoin:round; stroke-width:8; stroke-opacity:1; fill:none" stroke-dasharray="32, 20" points="279.759,773.326 481.021,716.538 682.282,658.63 883.544,599.593 1084.81,539.473 1286.07,478.342 1487.33,416.279 1688.59,353.365 1889.85,289.676 2091.12,225.285 2292.38,1386.4 "></polyline>
<path clip-path="url(#clip940)" d="M290.493 322.316 L610.936 322.316 L610.936 166.796 L290.493 166.796  Z" fill="#ffffff" fill-rule="evenodd" fill-opacity="1"></path>
<polyline clip-path="url(#clip940)" style="stroke:#000000; stroke-linecap:round; stroke-linejoin:round; stroke-width:4; stroke-opacity:1; fill:none" points="290.493,322.316 610.936,322.316 610.936,166.796 290.493,166.796 290.493,322.316 "></polyline>
<polyline clip-path="url(#clip940)" style="stroke:#009af9; stroke-linecap:round; stroke-linejoin:round; stroke-width:8; stroke-opacity:1; fill:none" points="314.197,218.636 456.422,218.636 "></polyline>
<path clip-path="url(#clip940)" d="M493.969 238.323 Q492.163 242.953 490.45 244.365 Q488.737 245.777 485.867 245.777 L482.464 245.777 L482.464 242.212 L484.964 242.212 Q486.723 242.212 487.695 241.379 Q488.668 240.545 489.848 237.443 L490.612 235.499 L480.126 209.99 L484.64 209.99 L492.742 230.268 L500.844 209.99 L505.357 209.99 L493.969 238.323 Z" fill="#000000" fill-rule="nonzero" fill-opacity="1"></path><path clip-path="url(#clip940)" d="M521.468 199.944 Q518.367 205.268 516.862 210.476 Q515.357 215.684 515.357 221.032 Q515.357 226.379 516.862 231.633 Q518.39 236.865 521.468 242.166 L517.765 242.166 Q514.293 236.726 512.556 231.471 Q510.844 226.217 510.844 221.032 Q510.844 215.87 512.556 210.638 Q514.269 205.407 517.765 199.944 L521.468 199.944 Z" fill="#000000" fill-rule="nonzero" fill-opacity="1"></path><path clip-path="url(#clip940)" d="M551.283 209.99 L541.908 222.606 L551.769 235.916 L546.746 235.916 L539.2 225.731 L531.654 235.916 L526.63 235.916 L536.7 222.351 L527.487 209.99 L532.51 209.99 L539.385 219.226 L546.26 209.99 L551.283 209.99 Z" fill="#000000" fill-rule="nonzero" fill-opacity="1"></path><path clip-path="url(#clip940)" d="M557.116 199.944 L560.82 199.944 Q564.292 205.407 566.005 210.638 Q567.741 215.87 567.741 221.032 Q567.741 226.217 566.005 231.471 Q564.292 236.726 560.82 242.166 L557.116 242.166 Q560.195 236.865 561.7 231.633 Q563.227 226.379 563.227 221.032 Q563.227 215.684 561.7 210.476 Q560.195 205.268 557.116 199.944 Z" fill="#000000" fill-rule="nonzero" fill-opacity="1"></path><polyline clip-path="url(#clip940)" style="stroke:#e26f46; stroke-linecap:round; stroke-linejoin:round; stroke-width:8; stroke-opacity:1; fill:none" stroke-dasharray="32, 20" points="314.197,270.476 456.422,270.476 "></polyline>
<path clip-path="url(#clip940)" d="M493.969 290.163 Q492.163 294.793 490.45 296.205 Q488.737 297.617 485.867 297.617 L482.464 297.617 L482.464 294.052 L484.964 294.052 Q486.723 294.052 487.695 293.219 Q488.668 292.385 489.848 289.283 L490.612 287.339 L480.126 261.83 L484.64 261.83 L492.742 282.108 L500.844 261.83 L505.357 261.83 L493.969 290.163 Z" fill="#000000" fill-rule="nonzero" fill-opacity="1"></path><path clip-path="url(#clip940)" d="M526.26 265.811 Q525.543 265.395 524.686 265.21 Q523.853 265.001 522.834 265.001 Q519.223 265.001 517.279 267.362 Q515.357 269.7 515.357 274.098 L515.357 287.756 L511.075 287.756 L511.075 261.83 L515.357 261.83 L515.357 265.858 Q516.7 263.497 518.853 262.362 Q521.005 261.205 524.084 261.205 Q524.524 261.205 525.056 261.274 Q525.589 261.321 526.237 261.436 L526.26 265.811 Z" fill="#000000" fill-rule="nonzero" fill-opacity="1"></path><path clip-path="url(#clip940)" d="M540.959 251.784 Q537.857 257.108 536.353 262.316 Q534.848 267.524 534.848 272.872 Q534.848 278.219 536.353 283.473 Q537.88 288.705 540.959 294.006 L537.255 294.006 Q533.783 288.566 532.047 283.311 Q530.334 278.057 530.334 272.872 Q530.334 267.71 532.047 262.478 Q533.76 257.247 537.255 251.784 L540.959 251.784 Z" fill="#000000" fill-rule="nonzero" fill-opacity="1"></path><path clip-path="url(#clip940)" d="M570.774 261.83 L561.399 274.446 L571.26 287.756 L566.237 287.756 L558.69 277.571 L551.144 287.756 L546.121 287.756 L556.19 274.191 L546.978 261.83 L552.001 261.83 L558.876 271.066 L565.751 261.83 L570.774 261.83 Z" fill="#000000" fill-rule="nonzero" fill-opacity="1"></path><path clip-path="url(#clip940)" d="M576.607 251.784 L580.311 251.784 Q583.783 257.247 585.496 262.478 Q587.232 267.71 587.232 272.872 Q587.232 278.057 585.496 283.311 Q583.783 288.566 580.311 294.006 L576.607 294.006 Q579.686 288.705 581.19 283.473 Q582.718 278.219 582.718 272.872 Q582.718 267.524 581.19 262.316 Q579.686 257.108 576.607 251.784 Z" fill="#000000" fill-rule="nonzero" fill-opacity="1"></path></svg>