<svg xmlns="http://www.w3.org/2000/svg" xmlns:xlink="http://www.w3.org/1999/xlink" width="600" height="400" viewBox="0 0 2400 1600">
<defs>
  <clipPath id="clip320">
    <rect x="0" y="0" width="2400" height="1600"></rect>
  </clipPath>
</defs>
<path clip-path="url(#clip320)" d="M0 1600 L2400 1600 L2400 0 L0 0  Z" fill="#ffffff" fill-rule="evenodd" fill-opacity="1"></path>
<defs>
  <clipPath id="clip321">
    <rect x="480" y="0" width="1681" height="1600"></rect>
  </clipPath>
</defs>
<path clip-path="url(#clip320)" d="M306.922 1486.45 L2352.76 1486.45 L2352.76 47.2441 L306.922 47.2441  Z" fill="#ffffff" fill-rule="evenodd" fill-opacity="1"></path>
<defs>
  <clipPath id="clip322">
    <rect x="306" y="47" width="2047" height="1440"></rect>
  </clipPath>
</defs>
<polyline clip-path="url(#clip322)" style="stroke:#000000; stroke-linecap:round; stroke-linejoin:round; stroke-width:2; stroke-opacity:0.1; fill:none" points="364.822,1486.45 364.822,47.2441 "></polyline>
<polyline clip-path="url(#clip322)" style="stroke:#000000; stroke-linecap:round; stroke-linejoin:round; stroke-width:2; stroke-opacity:0.1; fill:none" points="847.331,1486.45 847.331,47.2441 "></polyline>
<polyline clip-path="url(#clip322)" style="stroke:#000000; stroke-linecap:round; stroke-linejoin:round; stroke-width:2; stroke-opacity:0.1; fill:none" points="1329.84,1486.45 1329.84,47.2441 "></polyline>
<polyline clip-path="url(#clip322)" style="stroke:#000000; stroke-linecap:round; stroke-linejoin:round; stroke-width:2; stroke-opacity:0.1; fill:none" points="1812.35,1486.45 1812.35,47.2441 "></polyline>
<polyline clip-path="url(#clip322)" style="stroke:#000000; stroke-linecap:round; stroke-linejoin:round; stroke-width:2; stroke-opacity:0.1; fill:none" points="2294.85,1486.45 2294.85,47.2441 "></polyline>
<polyline clip-path="url(#clip320)" style="stroke:#000000; stroke-linecap:round; stroke-linejoin:round; stroke-width:4; stroke-opacity:1; fill:none" points="306.922,1486.45 2352.76,1486.45 "></polyline>
<polyline clip-path="url(#clip320)" style="stroke:#000000; stroke-linecap:round; stroke-linejoin:round; stroke-width:4; stroke-opacity:1; fill:none" points="364.822,1486.45 364.822,1467.55 "></polyline>
<polyline clip-path="url(#clip320)" style="stroke:#000000; stroke-linecap:round; stroke-linejoin:round; stroke-width:4; stroke-opacity:1; fill:none" points="847.331,1486.45 847.331,1467.55 "></polyline>
<polyline clip-path="url(#clip320)" style="stroke:#000000; stroke-linecap:round; stroke-linejoin:round; stroke-width:4; stroke-opacity:1; fill:none" points="1329.84,1486.45 1329.84,1467.55 "></polyline>
<polyline clip-path="url(#clip320)" style="stroke:#000000; stroke-linecap:round; stroke-linejoin:round; stroke-width:4; stroke-opacity:1; fill:none" points="1812.35,1486.45 1812.35,1467.55 "></polyline>
<polyline clip-path="url(#clip320)" style="stroke:#000000; stroke-linecap:round; stroke-linejoin:round; stroke-width:4; stroke-opacity:1; fill:none" points="2294.85,1486.45 2294.85,1467.55 "></polyline>
<path clip-path="url(#clip320)" d="M311.351 1532.02 L341.026 1532.02 L341.026 1535.95 L311.351 1535.95 L311.351 1532.02 Z" fill="#000000" fill-rule="nonzero" fill-opacity="1"></path><path clip-path="url(#clip320)" d="M351.929 1544.91 L359.568 1544.91 L359.568 1518.55 L351.258 1520.21 L351.258 1515.95 L359.522 1514.29 L364.197 1514.29 L364.197 1544.91 L371.836 1544.91 L371.836 1548.85 L351.929 1548.85 L351.929 1544.91 Z" fill="#000000" fill-rule="nonzero" fill-opacity="1"></path><path clip-path="url(#clip320)" d="M381.281 1542.97 L386.165 1542.97 L386.165 1548.85 L381.281 1548.85 L381.281 1542.97 Z" fill="#000000" fill-rule="nonzero" fill-opacity="1"></path><path clip-path="url(#clip320)" d="M406.35 1517.37 Q402.739 1517.37 400.91 1520.93 Q399.105 1524.47 399.105 1531.6 Q399.105 1538.71 400.91 1542.27 Q402.739 1545.82 406.35 1545.82 Q409.984 1545.82 411.79 1542.27 Q413.619 1538.71 413.619 1531.6 Q413.619 1524.47 411.79 1520.93 Q409.984 1517.37 406.35 1517.37 M406.35 1513.66 Q412.16 1513.66 415.216 1518.27 Q418.294 1522.85 418.294 1531.6 Q418.294 1540.33 415.216 1544.94 Q412.16 1549.52 406.35 1549.52 Q400.54 1549.52 397.461 1544.94 Q394.406 1540.33 394.406 1531.6 Q394.406 1522.85 397.461 1518.27 Q400.54 1513.66 406.35 1513.66 Z" fill="#000000" fill-rule="nonzero" fill-opacity="1"></path><path clip-path="url(#clip320)" d="M794.356 1532.02 L824.032 1532.02 L824.032 1535.95 L794.356 1535.95 L794.356 1532.02 Z" fill="#000000" fill-rule="nonzero" fill-opacity="1"></path><path clip-path="url(#clip320)" d="M844.125 1517.37 Q840.513 1517.37 838.685 1520.93 Q836.879 1524.47 836.879 1531.6 Q836.879 1538.71 838.685 1542.27 Q840.513 1545.82 844.125 1545.82 Q847.759 1545.82 849.564 1542.27 Q851.393 1538.71 851.393 1531.6 Q851.393 1524.47 849.564 1520.93 Q847.759 1517.37 844.125 1517.37 M844.125 1513.66 Q849.935 1513.66 852.99 1518.27 Q856.069 1522.85 856.069 1531.6 Q856.069 1540.33 852.99 1544.94 Q849.935 1549.52 844.125 1549.52 Q838.314 1549.52 835.236 1544.94 Q832.18 1540.33 832.18 1531.6 Q832.18 1522.85 835.236 1518.27 Q838.314 1513.66 844.125 1513.66 Z" fill="#000000" fill-rule="nonzero" fill-opacity="1"></path><path clip-path="url(#clip320)" d="M864.287 1542.97 L869.171 1542.97 L869.171 1548.85 L864.287 1548.85 L864.287 1542.97 Z" fill="#000000" fill-rule="nonzero" fill-opacity="1"></path><path clip-path="url(#clip320)" d="M879.402 1514.29 L897.759 1514.29 L897.759 1518.22 L883.685 1518.22 L883.685 1526.7 Q884.703 1526.35 885.722 1526.19 Q886.74 1526 887.759 1526 Q893.546 1526 896.925 1529.17 Q900.305 1532.34 900.305 1537.76 Q900.305 1543.34 896.833 1546.44 Q893.36 1549.52 887.041 1549.52 Q884.865 1549.52 882.597 1549.15 Q880.351 1548.78 877.944 1548.04 L877.944 1543.34 Q880.027 1544.47 882.249 1545.03 Q884.472 1545.58 886.948 1545.58 Q890.953 1545.58 893.291 1543.48 Q895.629 1541.37 895.629 1537.76 Q895.629 1534.15 893.291 1532.04 Q890.953 1529.94 886.948 1529.94 Q885.073 1529.94 883.198 1530.35 Q881.347 1530.77 879.402 1531.65 L879.402 1514.29 Z" fill="#000000" fill-rule="nonzero" fill-opacity="1"></path><path clip-path="url(#clip320)" d="M1307.22 1517.37 Q1303.61 1517.37 1301.78 1520.93 Q1299.98 1524.47 1299.98 1531.6 Q1299.98 1538.71 1301.78 1542.27 Q1303.61 1545.82 1307.22 1545.82 Q1310.86 1545.82 1312.66 1542.27 Q1314.49 1538.71 1314.49 1531.6 Q1314.49 1524.47 1312.66 1520.93 Q1310.86 1517.37 1307.22 1517.37 M1307.22 1513.66 Q1313.03 1513.66 1316.09 1518.27 Q1319.17 1522.85 1319.17 1531.6 Q1319.17 1540.33 1316.09 1544.94 Q1313.03 1549.52 1307.22 1549.52 Q1301.41 1549.52 1298.33 1544.94 Q1295.28 1540.33 1295.28 1531.6 Q1295.28 1522.85 1298.33 1518.27 Q1301.41 1513.66 1307.22 1513.66 Z" fill="#000000" fill-rule="nonzero" fill-opacity="1"></path><path clip-path="url(#clip320)" d="M1327.39 1542.97 L1332.27 1542.97 L1332.27 1548.85 L1327.39 1548.85 L1327.39 1542.97 Z" fill="#000000" fill-rule="nonzero" fill-opacity="1"></path><path clip-path="url(#clip320)" d="M1352.45 1517.37 Q1348.84 1517.37 1347.01 1520.93 Q1345.21 1524.47 1345.21 1531.6 Q1345.21 1538.71 1347.01 1542.27 Q1348.84 1545.82 1352.45 1545.82 Q1356.09 1545.82 1357.89 1542.27 Q1359.72 1538.71 1359.72 1531.6 Q1359.72 1524.47 1357.89 1520.93 Q1356.09 1517.37 1352.45 1517.37 M1352.45 1513.66 Q1358.26 1513.66 1361.32 1518.27 Q1364.4 1522.85 1364.4 1531.6 Q1364.4 1540.33 1361.32 1544.94 Q1358.26 1549.52 1352.45 1549.52 Q1346.64 1549.52 1343.57 1544.94 Q1340.51 1540.33 1340.51 1531.6 Q1340.51 1522.85 1343.57 1518.27 Q1346.64 1513.66 1352.45 1513.66 Z" fill="#000000" fill-rule="nonzero" fill-opacity="1"></path><path clip-path="url(#clip320)" d="M1790.23 1517.37 Q1786.62 1517.37 1784.79 1520.93 Q1782.98 1524.47 1782.98 1531.6 Q1782.98 1538.71 1784.79 1542.27 Q1786.62 1545.82 1790.23 1545.82 Q1793.86 1545.82 1795.67 1542.27 Q1797.5 1538.71 1797.5 1531.6 Q1797.5 1524.47 1795.67 1520.93 Q1793.86 1517.37 1790.23 1517.37 M1790.23 1513.66 Q1796.04 1513.66 1799.09 1518.27 Q1802.17 1522.85 1802.17 1531.6 Q1802.17 1540.33 1799.09 1544.94 Q1796.04 1549.52 1790.23 1549.52 Q1784.42 1549.52 1781.34 1544.94 Q1778.28 1540.33 1778.28 1531.6 Q1778.28 1522.85 1781.34 1518.27 Q1784.42 1513.66 1790.23 1513.66 Z" fill="#000000" fill-rule="nonzero" fill-opacity="1"></path><path clip-path="url(#clip320)" d="M1810.39 1542.97 L1815.28 1542.97 L1815.28 1548.85 L1810.39 1548.85 L1810.39 1542.97 Z" fill="#000000" fill-rule="nonzero" fill-opacity="1"></path><path clip-path="url(#clip320)" d="M1825.51 1514.29 L1843.86 1514.29 L1843.86 1518.22 L1829.79 1518.22 L1829.79 1526.7 Q1830.81 1526.35 1831.83 1526.19 Q1832.84 1526 1833.86 1526 Q1839.65 1526 1843.03 1529.17 Q1846.41 1532.34 1846.41 1537.76 Q1846.41 1543.34 1842.94 1546.44 Q1839.46 1549.52 1833.15 1549.52 Q1830.97 1549.52 1828.7 1549.15 Q1826.46 1548.78 1824.05 1548.04 L1824.05 1543.34 Q1826.13 1544.47 1828.35 1545.03 Q1830.58 1545.58 1833.05 1545.58 Q1837.06 1545.58 1839.4 1543.48 Q1841.73 1541.37 1841.73 1537.76 Q1841.73 1534.15 1839.4 1532.04 Q1837.06 1529.94 1833.05 1529.94 Q1831.18 1529.94 1829.3 1530.35 Q1827.45 1530.77 1825.51 1531.65 L1825.51 1514.29 Z" fill="#000000" fill-rule="nonzero" fill-opacity="1"></path><path clip-path="url(#clip320)" d="M2262.01 1544.91 L2269.65 1544.91 L2269.65 1518.55 L2261.34 1520.21 L2261.34 1515.95 L2269.6 1514.29 L2274.28 1514.29 L2274.28 1544.91 L2281.92 1544.91 L2281.92 1548.85 L2262.01 1548.85 L2262.01 1544.91 Z" fill="#000000" fill-rule="nonzero" fill-opacity="1"></path><path clip-path="url(#clip320)" d="M2291.36 1542.97 L2296.24 1542.97 L2296.24 1548.85 L2291.36 1548.85 L2291.36 1542.97 Z" fill="#000000" fill-rule="nonzero" fill-opacity="1"></path><path clip-path="url(#clip320)" d="M2316.43 1517.37 Q2312.82 1517.37 2310.99 1520.93 Q2309.18 1524.47 2309.18 1531.6 Q2309.18 1538.71 2310.99 1542.27 Q2312.82 1545.82 2316.43 1545.82 Q2320.06 1545.82 2321.87 1542.27 Q2323.7 1538.71 2323.7 1531.6 Q2323.7 1524.47 2321.87 1520.93 Q2320.06 1517.37 2316.43 1517.37 M2316.43 1513.66 Q2322.24 1513.66 2325.29 1518.27 Q2328.37 1522.85 2328.37 1531.6 Q2328.37 1540.33 2325.29 1544.94 Q2322.24 1549.52 2316.43 1549.52 Q2310.62 1549.52 2307.54 1544.94 Q2304.48 1540.33 2304.48 1531.6 Q2304.48 1522.85 2307.54 1518.27 Q2310.62 1513.66 2316.43 1513.66 Z" fill="#000000" fill-rule="nonzero" fill-opacity="1"></path><polyline clip-path="url(#clip322)" style="stroke:#000000; stroke-linecap:round; stroke-linejoin:round; stroke-width:2; stroke-opacity:0.1; fill:none" points="306.922,1445.72 2352.76,1445.72 "></polyline>
<polyline clip-path="url(#clip322)" style="stroke:#000000; stroke-linecap:round; stroke-linejoin:round; stroke-width:2; stroke-opacity:0.1; fill:none" points="306.922,1125.41 2352.76,1125.41 "></polyline>
<polyline clip-path="url(#clip322)" style="stroke:#000000; stroke-linecap:round; stroke-linejoin:round; stroke-width:2; stroke-opacity:0.1; fill:none" points="306.922,805.102 2352.76,805.102 "></polyline>
<polyline clip-path="url(#clip322)" style="stroke:#000000; stroke-linecap:round; stroke-linejoin:round; stroke-width:2; stroke-opacity:0.1; fill:none" points="306.922,484.795 2352.76,484.795 "></polyline>
<polyline clip-path="url(#clip322)" style="stroke:#000000; stroke-linecap:round; stroke-linejoin:round; stroke-width:2; stroke-opacity:0.1; fill:none" points="306.922,164.488 2352.76,164.488 "></polyline>
<polyline clip-path="url(#clip320)" style="stroke:#000000; stroke-linecap:round; stroke-linejoin:round; stroke-width:4; stroke-opacity:1; fill:none" points="306.922,1486.45 306.922,47.2441 "></polyline>
<polyline clip-path="url(#clip320)" style="stroke:#000000; stroke-linecap:round; stroke-linejoin:round; stroke-width:4; stroke-opacity:1; fill:none" points="306.922,1445.72 325.819,1445.72 "></polyline>
<polyline clip-path="url(#clip320)" style="stroke:#000000; stroke-linecap:round; stroke-linejoin:round; stroke-width:4; stroke-opacity:1; fill:none" points="306.922,1125.41 325.819,1125.41 "></polyline>
<polyline clip-path="url(#clip320)" style="stroke:#000000; stroke-linecap:round; stroke-linejoin:round; stroke-width:4; stroke-opacity:1; fill:none" points="306.922,805.102 325.819,805.102 "></polyline>
<polyline clip-path="url(#clip320)" style="stroke:#000000; stroke-linecap:round; stroke-linejoin:round; stroke-width:4; stroke-opacity:1; fill:none" points="306.922,484.795 325.819,484.795 "></polyline>
<polyline clip-path="url(#clip320)" style="stroke:#000000; stroke-linecap:round; stroke-linejoin:round; stroke-width:4; stroke-opacity:1; fill:none" points="306.922,164.488 325.819,164.488 "></polyline>
<path clip-path="url(#clip320)" d="M62.9365 1431.51 Q59.3254 1431.51 57.4967 1435.08 Q55.6912 1438.62 55.6912 1445.75 Q55.6912 1452.86 57.4967 1456.42 Q59.3254 1459.96 62.9365 1459.96 Q66.5707 1459.96 68.3763 1456.42 Q70.205 1452.86 70.205 1445.75 Q70.205 1438.62 68.3763 1435.08 Q66.5707 1431.51 62.9365 1431.51 M62.9365 1427.81 Q68.7467 1427.81 71.8022 1432.42 Q74.8809 1437 74.8809 1445.75 Q74.8809 1454.48 71.8022 1459.08 Q68.7467 1463.67 62.9365 1463.67 Q57.1264 1463.67 54.0477 1459.08 Q50.9921 1454.48 50.9921 1445.75 Q50.9921 1437 54.0477 1432.42 Q57.1264 1427.81 62.9365 1427.81 Z" fill="#000000" fill-rule="nonzero" fill-opacity="1"></path><path clip-path="url(#clip320)" d="M83.0984 1457.12 L87.9827 1457.12 L87.9827 1463 L83.0984 1463 L83.0984 1457.12 Z" fill="#000000" fill-rule="nonzero" fill-opacity="1"></path><path clip-path="url(#clip320)" d="M108.168 1431.51 Q104.557 1431.51 102.728 1435.08 Q100.922 1438.62 100.922 1445.75 Q100.922 1452.86 102.728 1456.42 Q104.557 1459.96 108.168 1459.96 Q111.802 1459.96 113.608 1456.42 Q115.436 1452.86 115.436 1445.75 Q115.436 1438.62 113.608 1435.08 Q111.802 1431.51 108.168 1431.51 M108.168 1427.81 Q113.978 1427.81 117.033 1432.42 Q120.112 1437 120.112 1445.75 Q120.112 1454.48 117.033 1459.08 Q113.978 1463.67 108.168 1463.67 Q102.358 1463.67 99.2789 1459.08 Q96.2234 1454.48 96.2234 1445.75 Q96.2234 1437 99.2789 1432.42 Q102.358 1427.81 108.168 1427.81 Z" fill="#000000" fill-rule="nonzero" fill-opacity="1"></path><path clip-path="url(#clip320)" d="M138.33 1431.51 Q134.719 1431.51 132.89 1435.08 Q131.084 1438.62 131.084 1445.75 Q131.084 1452.86 132.89 1456.42 Q134.719 1459.96 138.33 1459.96 Q141.964 1459.96 143.769 1456.42 Q145.598 1452.86 145.598 1445.75 Q145.598 1438.62 143.769 1435.08 Q141.964 1431.51 138.33 1431.51 M138.33 1427.81 Q144.14 1427.81 147.195 1432.42 Q150.274 1437 150.274 1445.75 Q150.274 1454.48 147.195 1459.08 Q144.14 1463.67 138.33 1463.67 Q132.519 1463.67 129.441 1459.08 Q126.385 1454.48 126.385 1445.75 Q126.385 1437 129.441 1432.42 Q132.519 1427.81 138.33 1427.81 Z" fill="#000000" fill-rule="nonzero" fill-opacity="1"></path><path clip-path="url(#clip320)" d="M168.491 1431.51 Q164.88 1431.51 163.052 1435.08 Q161.246 1438.62 161.246 1445.75 Q161.246 1452.86 163.052 1456.42 Q164.88 1459.96 168.491 1459.96 Q172.126 1459.96 173.931 1456.42 Q175.76 1452.86 175.76 1445.75 Q175.76 1438.62 173.931 1435.08 Q172.126 1431.51 168.491 1431.51 M168.491 1427.81 Q174.302 1427.81 177.357 1432.42 Q180.436 1437 180.436 1445.75 Q180.436 1454.48 177.357 1459.08 Q174.302 1463.67 168.491 1463.67 Q162.681 1463.67 159.603 1459.08 Q156.547 1454.48 156.547 1445.75 Q156.547 1437 159.603 1432.42 Q162.681 1427.81 168.491 1427.81 Z" fill="#000000" fill-rule="nonzero" fill-opacity="1"></path><path clip-path="url(#clip320)" d="M198.653 1431.51 Q195.042 1431.51 193.214 1435.08 Q191.408 1438.62 191.408 1445.75 Q191.408 1452.86 193.214 1456.42 Q195.042 1459.96 198.653 1459.96 Q202.288 1459.96 204.093 1456.42 Q205.922 1452.86 205.922 1445.75 Q205.922 1438.62 204.093 1435.08 Q202.288 1431.51 198.653 1431.51 M198.653 1427.81 Q204.464 1427.81 207.519 1432.42 Q210.598 1437 210.598 1445.75 Q210.598 1454.48 207.519 1459.08 Q204.464 1463.67 198.653 1463.67 Q192.843 1463.67 189.765 1459.08 Q186.709 1454.48 186.709 1445.75 Q186.709 1437 189.765 1432.42 Q192.843 1427.81 198.653 1427.81 Z" fill="#000000" fill-rule="nonzero" fill-opacity="1"></path><path clip-path="url(#clip320)" d="M228.815 1431.51 Q225.204 1431.51 223.375 1435.08 Q221.57 1438.62 221.57 1445.75 Q221.57 1452.86 223.375 1456.42 Q225.204 1459.96 228.815 1459.96 Q232.449 1459.96 234.255 1456.42 Q236.084 1452.86 236.084 1445.75 Q236.084 1438.62 234.255 1435.08 Q232.449 1431.51 228.815 1431.51 M228.815 1427.81 Q234.625 1427.81 237.681 1432.42 Q240.76 1437 240.76 1445.75 Q240.76 1454.48 237.681 1459.08 Q234.625 1463.67 228.815 1463.67 Q223.005 1463.67 219.926 1459.08 Q216.871 1454.48 216.871 1445.75 Q216.871 1437 219.926 1432.42 Q223.005 1427.81 228.815 1427.81 Z" fill="#000000" fill-rule="nonzero" fill-opacity="1"></path><path clip-path="url(#clip320)" d="M258.977 1431.51 Q255.366 1431.51 253.537 1435.08 Q251.732 1438.62 251.732 1445.75 Q251.732 1452.86 253.537 1456.42 Q255.366 1459.96 258.977 1459.96 Q262.611 1459.96 264.417 1456.42 Q266.246 1452.86 266.246 1445.75 Q266.246 1438.62 264.417 1435.08 Q262.611 1431.51 258.977 1431.51 M258.977 1427.81 Q264.787 1427.81 267.843 1432.42 Q270.922 1437 270.922 1445.75 Q270.922 1454.48 267.843 1459.08 Q264.787 1463.67 258.977 1463.67 Q253.167 1463.67 250.088 1459.08 Q247.033 1454.48 247.033 1445.75 Q247.033 1437 250.088 1432.42 Q253.167 1427.81 258.977 1427.81 Z" fill="#000000" fill-rule="nonzero" fill-opacity="1"></path><path clip-path="url(#clip320)" d="M63.9319 1111.21 Q60.3208 1111.21 58.4921 1114.77 Q56.6865 1118.31 56.6865 1125.44 Q56.6865 1132.55 58.4921 1136.11 Q60.3208 1139.66 63.9319 1139.66 Q67.5661 1139.66 69.3717 1136.11 Q71.2004 1132.55 71.2004 1125.44 Q71.2004 1118.31 69.3717 1114.77 Q67.5661 1111.21 63.9319 1111.21 M63.9319 1107.5 Q69.742 1107.5 72.7976 1112.11 Q75.8763 1116.69 75.8763 1125.44 Q75.8763 1134.17 72.7976 1138.78 Q69.742 1143.36 63.9319 1143.36 Q58.1217 1143.36 55.043 1138.78 Q51.9875 1134.17 51.9875 1125.44 Q51.9875 1116.69 55.043 1112.11 Q58.1217 1107.5 63.9319 1107.5 Z" fill="#000000" fill-rule="nonzero" fill-opacity="1"></path><path clip-path="url(#clip320)" d="M84.0938 1136.81 L88.978 1136.81 L88.978 1142.69 L84.0938 1142.69 L84.0938 1136.81 Z" fill="#000000" fill-rule="nonzero" fill-opacity="1"></path><path clip-path="url(#clip320)" d="M109.163 1111.21 Q105.552 1111.21 103.723 1114.77 Q101.918 1118.31 101.918 1125.44 Q101.918 1132.55 103.723 1136.11 Q105.552 1139.66 109.163 1139.66 Q112.797 1139.66 114.603 1136.11 Q116.432 1132.55 116.432 1125.44 Q116.432 1118.31 114.603 1114.77 Q112.797 1111.21 109.163 1111.21 M109.163 1107.5 Q114.973 1107.5 118.029 1112.11 Q121.107 1116.69 121.107 1125.44 Q121.107 1134.17 118.029 1138.78 Q114.973 1143.36 109.163 1143.36 Q103.353 1143.36 100.274 1138.78 Q97.2187 1134.17 97.2187 1125.44 Q97.2187 1116.69 100.274 1112.11 Q103.353 1107.5 109.163 1107.5 Z" fill="#000000" fill-rule="nonzero" fill-opacity="1"></path><path clip-path="url(#clip320)" d="M139.325 1111.21 Q135.714 1111.21 133.885 1114.77 Q132.08 1118.31 132.08 1125.44 Q132.08 1132.55 133.885 1136.11 Q135.714 1139.66 139.325 1139.66 Q142.959 1139.66 144.765 1136.11 Q146.593 1132.55 146.593 1125.44 Q146.593 1118.31 144.765 1114.77 Q142.959 1111.21 139.325 1111.21 M139.325 1107.5 Q145.135 1107.5 148.191 1112.11 Q151.269 1116.69 151.269 1125.44 Q151.269 1134.17 148.191 1138.78 Q145.135 1143.36 139.325 1143.36 Q133.515 1143.36 130.436 1138.78 Q127.381 1134.17 127.381 1125.44 Q127.381 1116.69 130.436 1112.11 Q133.515 1107.5 139.325 1107.5 Z" fill="#000000" fill-rule="nonzero" fill-opacity="1"></path><path clip-path="url(#clip320)" d="M169.487 1111.21 Q165.876 1111.21 164.047 1114.77 Q162.242 1118.31 162.242 1125.44 Q162.242 1132.55 164.047 1136.11 Q165.876 1139.66 169.487 1139.66 Q173.121 1139.66 174.927 1136.11 Q176.755 1132.55 176.755 1125.44 Q176.755 1118.31 174.927 1114.77 Q173.121 1111.21 169.487 1111.21 M169.487 1107.5 Q175.297 1107.5 178.353 1112.11 Q181.431 1116.69 181.431 1125.44 Q181.431 1134.17 178.353 1138.78 Q175.297 1143.36 169.487 1143.36 Q163.677 1143.36 160.598 1138.78 Q157.542 1134.17 157.542 1125.44 Q157.542 1116.69 160.598 1112.11 Q163.677 1107.5 169.487 1107.5 Z" fill="#000000" fill-rule="nonzero" fill-opacity="1"></path><path clip-path="url(#clip320)" d="M199.649 1111.21 Q196.038 1111.21 194.209 1114.77 Q192.403 1118.31 192.403 1125.44 Q192.403 1132.55 194.209 1136.11 Q196.038 1139.66 199.649 1139.66 Q203.283 1139.66 205.089 1136.11 Q206.917 1132.55 206.917 1125.44 Q206.917 1118.31 205.089 1114.77 Q203.283 1111.21 199.649 1111.21 M199.649 1107.5 Q205.459 1107.5 208.514 1112.11 Q211.593 1116.69 211.593 1125.44 Q211.593 1134.17 208.514 1138.78 Q205.459 1143.36 199.649 1143.36 Q193.839 1143.36 190.76 1138.78 Q187.704 1134.17 187.704 1125.44 Q187.704 1116.69 190.76 1112.11 Q193.839 1107.5 199.649 1107.5 Z" fill="#000000" fill-rule="nonzero" fill-opacity="1"></path><path clip-path="url(#clip320)" d="M223.838 1138.75 L240.158 1138.75 L240.158 1142.69 L218.213 1142.69 L218.213 1138.75 Q220.875 1136 225.459 1131.37 Q230.065 1126.72 231.246 1125.37 Q233.491 1122.85 234.371 1121.11 Q235.274 1119.36 235.274 1117.67 Q235.274 1114.91 233.329 1113.18 Q231.408 1111.44 228.306 1111.44 Q226.107 1111.44 223.653 1112.2 Q221.223 1112.97 218.445 1114.52 L218.445 1109.8 Q221.269 1108.66 223.723 1108.08 Q226.176 1107.5 228.213 1107.5 Q233.584 1107.5 236.778 1110.19 Q239.973 1112.87 239.973 1117.36 Q239.973 1119.49 239.162 1121.42 Q238.375 1123.31 236.269 1125.91 Q235.69 1126.58 232.588 1129.8 Q229.487 1132.99 223.838 1138.75 Z" fill="#000000" fill-rule="nonzero" fill-opacity="1"></path><path clip-path="url(#clip320)" d="M250.019 1108.13 L268.375 1108.13 L268.375 1112.06 L254.301 1112.06 L254.301 1120.54 Q255.32 1120.19 256.338 1120.03 Q257.357 1119.84 258.375 1119.84 Q264.162 1119.84 267.542 1123.01 Q270.922 1126.18 270.922 1131.6 Q270.922 1137.18 267.449 1140.28 Q263.977 1143.36 257.658 1143.36 Q255.482 1143.36 253.213 1142.99 Q250.968 1142.62 248.561 1141.88 L248.561 1137.18 Q250.644 1138.31 252.866 1138.87 Q255.088 1139.42 257.565 1139.42 Q261.57 1139.42 263.908 1137.32 Q266.246 1135.21 266.246 1131.6 Q266.246 1127.99 263.908 1125.88 Q261.57 1123.78 257.565 1123.78 Q255.69 1123.78 253.815 1124.19 Q251.963 1124.61 250.019 1125.49 L250.019 1108.13 Z" fill="#000000" fill-rule="nonzero" fill-opacity="1"></path><path clip-path="url(#clip320)" d="M62.9365 790.901 Q59.3254 790.901 57.4967 794.465 Q55.6912 798.007 55.6912 805.137 Q55.6912 812.243 57.4967 815.808 Q59.3254 819.35 62.9365 819.35 Q66.5707 819.35 68.3763 815.808 Q70.205 812.243 70.205 805.137 Q70.205 798.007 68.3763 794.465 Q66.5707 790.901 62.9365 790.901 M62.9365 787.197 Q68.7467 787.197 71.8022 791.803 Q74.8809 796.387 74.8809 805.137 Q74.8809 813.863 71.8022 818.47 Q68.7467 823.053 62.9365 823.053 Q57.1264 823.053 54.0477 818.47 Q50.9921 813.863 50.9921 805.137 Q50.9921 796.387 54.0477 791.803 Q57.1264 787.197 62.9365 787.197 Z" fill="#000000" fill-rule="nonzero" fill-opacity="1"></path><path clip-path="url(#clip320)" d="M83.0984 816.502 L87.9827 816.502 L87.9827 822.382 L83.0984 822.382 L83.0984 816.502 Z" fill="#000000" fill-rule="nonzero" fill-opacity="1"></path><path clip-path="url(#clip320)" d="M108.168 790.901 Q104.557 790.901 102.728 794.465 Q100.922 798.007 100.922 805.137 Q100.922 812.243 102.728 815.808 Q104.557 819.35 108.168 819.35 Q111.802 819.35 113.608 815.808 Q115.436 812.243 115.436 805.137 Q115.436 798.007 113.608 794.465 Q111.802 790.901 108.168 790.901 M108.168 787.197 Q113.978 787.197 117.033 791.803 Q120.112 796.387 120.112 805.137 Q120.112 813.863 117.033 818.47 Q113.978 823.053 108.168 823.053 Q102.358 823.053 99.2789 818.47 Q96.2234 813.863 96.2234 805.137 Q96.2234 796.387 99.2789 791.803 Q102.358 787.197 108.168 787.197 Z" fill="#000000" fill-rule="nonzero" fill-opacity="1"></path><path clip-path="url(#clip320)" d="M138.33 790.901 Q134.719 790.901 132.89 794.465 Q131.084 798.007 131.084 805.137 Q131.084 812.243 132.89 815.808 Q134.719 819.35 138.33 819.35 Q141.964 819.35 143.769 815.808 Q145.598 812.243 145.598 805.137 Q145.598 798.007 143.769 794.465 Q141.964 790.901 138.33 790.901 M138.33 787.197 Q144.14 787.197 147.195 791.803 Q150.274 796.387 150.274 805.137 Q150.274 813.863 147.195 818.47 Q144.14 823.053 138.33 823.053 Q132.519 823.053 129.441 818.47 Q126.385 813.863 126.385 805.137 Q126.385 796.387 129.441 791.803 Q132.519 787.197 138.33 787.197 Z" fill="#000000" fill-rule="nonzero" fill-opacity="1"></path><path clip-path="url(#clip320)" d="M168.491 790.901 Q164.88 790.901 163.052 794.465 Q161.246 798.007 161.246 805.137 Q161.246 812.243 163.052 815.808 Q164.88 819.35 168.491 819.35 Q172.126 819.35 173.931 815.808 Q175.76 812.243 175.76 805.137 Q175.76 798.007 173.931 794.465 Q172.126 790.901 168.491 790.901 M168.491 787.197 Q174.302 787.197 177.357 791.803 Q180.436 796.387 180.436 805.137 Q180.436 813.863 177.357 818.47 Q174.302 823.053 168.491 823.053 Q162.681 823.053 159.603 818.47 Q156.547 813.863 156.547 805.137 Q156.547 796.387 159.603 791.803 Q162.681 787.197 168.491 787.197 Z" fill="#000000" fill-rule="nonzero" fill-opacity="1"></path><path clip-path="url(#clip320)" d="M198.653 790.901 Q195.042 790.901 193.214 794.465 Q191.408 798.007 191.408 805.137 Q191.408 812.243 193.214 815.808 Q195.042 819.35 198.653 819.35 Q202.288 819.35 204.093 815.808 Q205.922 812.243 205.922 805.137 Q205.922 798.007 204.093 794.465 Q202.288 790.901 198.653 790.901 M198.653 787.197 Q204.464 787.197 207.519 791.803 Q210.598 796.387 210.598 805.137 Q210.598 813.863 207.519 818.47 Q204.464 823.053 198.653 823.053 Q192.843 823.053 189.765 818.47 Q186.709 813.863 186.709 805.137 Q186.709 796.387 189.765 791.803 Q192.843 787.197 198.653 787.197 Z" fill="#000000" fill-rule="nonzero" fill-opacity="1"></path><path clip-path="url(#clip320)" d="M218.862 787.822 L237.218 787.822 L237.218 791.757 L223.144 791.757 L223.144 800.229 Q224.162 799.882 225.181 799.72 Q226.2 799.535 227.218 799.535 Q233.005 799.535 236.385 802.706 Q239.764 805.877 239.764 811.294 Q239.764 816.873 236.292 819.975 Q232.82 823.053 226.5 823.053 Q224.325 823.053 222.056 822.683 Q219.811 822.312 217.403 821.572 L217.403 816.873 Q219.487 818.007 221.709 818.563 Q223.931 819.118 226.408 819.118 Q230.412 819.118 232.75 817.012 Q235.088 814.905 235.088 811.294 Q235.088 807.683 232.75 805.576 Q230.412 803.47 226.408 803.47 Q224.533 803.47 222.658 803.887 Q220.806 804.303 218.862 805.183 L218.862 787.822 Z" fill="#000000" fill-rule="nonzero" fill-opacity="1"></path><path clip-path="url(#clip320)" d="M258.977 790.901 Q255.366 790.901 253.537 794.465 Q251.732 798.007 251.732 805.137 Q251.732 812.243 253.537 815.808 Q255.366 819.35 258.977 819.35 Q262.611 819.35 264.417 815.808 Q266.246 812.243 266.246 805.137 Q266.246 798.007 264.417 794.465 Q262.611 790.901 258.977 790.901 M258.977 787.197 Q264.787 787.197 267.843 791.803 Q270.922 796.387 270.922 805.137 Q270.922 813.863 267.843 818.47 Q264.787 823.053 258.977 823.053 Q253.167 823.053 250.088 818.47 Q247.033 813.863 247.033 805.137 Q247.033 796.387 250.088 791.803 Q253.167 787.197 258.977 787.197 Z" fill="#000000" fill-rule="nonzero" fill-opacity="1"></path><path clip-path="url(#clip320)" d="M63.9319 470.594 Q60.3208 470.594 58.4921 474.159 Q56.6865 477.7 56.6865 484.83 Q56.6865 491.936 58.4921 495.501 Q60.3208 499.043 63.9319 499.043 Q67.5661 499.043 69.3717 495.501 Q71.2004 491.936 71.2004 484.83 Q71.2004 477.7 69.3717 474.159 Q67.5661 470.594 63.9319 470.594 M63.9319 466.89 Q69.742 466.89 72.7976 471.497 Q75.8763 476.08 75.8763 484.83 Q75.8763 493.557 72.7976 498.163 Q69.742 502.746 63.9319 502.746 Q58.1217 502.746 55.043 498.163 Q51.9875 493.557 51.9875 484.83 Q51.9875 476.08 55.043 471.497 Q58.1217 466.89 63.9319 466.89 Z" fill="#000000" fill-rule="nonzero" fill-opacity="1"></path><path clip-path="url(#clip320)" d="M84.0938 496.195 L88.978 496.195 L88.978 502.075 L84.0938 502.075 L84.0938 496.195 Z" fill="#000000" fill-rule="nonzero" fill-opacity="1"></path><path clip-path="url(#clip320)" d="M109.163 470.594 Q105.552 470.594 103.723 474.159 Q101.918 477.7 101.918 484.83 Q101.918 491.936 103.723 495.501 Q105.552 499.043 109.163 499.043 Q112.797 499.043 114.603 495.501 Q116.432 491.936 116.432 484.83 Q116.432 477.7 114.603 474.159 Q112.797 470.594 109.163 470.594 M109.163 466.89 Q114.973 466.89 118.029 471.497 Q121.107 476.08 121.107 484.83 Q121.107 493.557 118.029 498.163 Q114.973 502.746 109.163 502.746 Q103.353 502.746 100.274 498.163 Q97.2187 493.557 97.2187 484.83 Q97.2187 476.08 100.274 471.497 Q103.353 466.89 109.163 466.89 Z" fill="#000000" fill-rule="nonzero" fill-opacity="1"></path><path clip-path="url(#clip320)" d="M139.325 470.594 Q135.714 470.594 133.885 474.159 Q132.08 477.7 132.08 484.83 Q132.08 491.936 133.885 495.501 Q135.714 499.043 139.325 499.043 Q142.959 499.043 144.765 495.501 Q146.593 491.936 146.593 484.83 Q146.593 477.7 144.765 474.159 Q142.959 470.594 139.325 470.594 M139.325 466.89 Q145.135 466.89 148.191 471.497 Q151.269 476.08 151.269 484.83 Q151.269 493.557 148.191 498.163 Q145.135 502.746 139.325 502.746 Q133.515 502.746 130.436 498.163 Q127.381 493.557 127.381 484.83 Q127.381 476.08 130.436 471.497 Q133.515 466.89 139.325 466.89 Z" fill="#000000" fill-rule="nonzero" fill-opacity="1"></path><path clip-path="url(#clip320)" d="M169.487 470.594 Q165.876 470.594 164.047 474.159 Q162.242 477.7 162.242 484.83 Q162.242 491.936 164.047 495.501 Q165.876 499.043 169.487 499.043 Q173.121 499.043 174.927 495.501 Q176.755 491.936 176.755 484.83 Q176.755 477.7 174.927 474.159 Q173.121 470.594 169.487 470.594 M169.487 466.89 Q175.297 466.89 178.353 471.497 Q181.431 476.08 181.431 484.83 Q181.431 493.557 178.353 498.163 Q175.297 502.746 169.487 502.746 Q163.677 502.746 160.598 498.163 Q157.542 493.557 157.542 484.83 Q157.542 476.08 160.598 471.497 Q163.677 466.89 169.487 466.89 Z" fill="#000000" fill-rule="nonzero" fill-opacity="1"></path><path clip-path="url(#clip320)" d="M199.649 470.594 Q196.038 470.594 194.209 474.159 Q192.403 477.7 192.403 484.83 Q192.403 491.936 194.209 495.501 Q196.038 499.043 199.649 499.043 Q203.283 499.043 205.089 495.501 Q206.917 491.936 206.917 484.83 Q206.917 477.7 205.089 474.159 Q203.283 470.594 199.649 470.594 M199.649 466.89 Q205.459 466.89 208.514 471.497 Q211.593 476.08 211.593 484.83 Q211.593 493.557 208.514 498.163 Q205.459 502.746 199.649 502.746 Q193.839 502.746 190.76 498.163 Q187.704 493.557 187.704 484.83 Q187.704 476.08 190.76 471.497 Q193.839 466.89 199.649 466.89 Z" fill="#000000" fill-rule="nonzero" fill-opacity="1"></path><path clip-path="url(#clip320)" d="M218.63 467.515 L240.852 467.515 L240.852 469.506 L228.306 502.075 L223.422 502.075 L235.227 471.45 L218.63 471.45 L218.63 467.515 Z" fill="#000000" fill-rule="nonzero" fill-opacity="1"></path><path clip-path="url(#clip320)" d="M250.019 467.515 L268.375 467.515 L268.375 471.45 L254.301 471.45 L254.301 479.922 Q255.32 479.575 256.338 479.413 Q257.357 479.228 258.375 479.228 Q264.162 479.228 267.542 482.399 Q270.922 485.571 270.922 490.987 Q270.922 496.566 267.449 499.668 Q263.977 502.746 257.658 502.746 Q255.482 502.746 253.213 502.376 Q250.968 502.006 248.561 501.265 L248.561 496.566 Q250.644 497.7 252.866 498.256 Q255.088 498.811 257.565 498.811 Q261.57 498.811 263.908 496.705 Q266.246 494.598 266.246 490.987 Q266.246 487.376 263.908 485.27 Q261.57 483.163 257.565 483.163 Q255.69 483.163 253.815 483.58 Q251.963 483.996 250.019 484.876 L250.019 467.515 Z" fill="#000000" fill-rule="nonzero" fill-opacity="1"></path><path clip-path="url(#clip320)" d="M62.9365 150.287 Q59.3254 150.287 57.4967 153.852 Q55.6912 157.393 55.6912 164.523 Q55.6912 171.629 57.4967 175.194 Q59.3254 178.736 62.9365 178.736 Q66.5707 178.736 68.3763 175.194 Q70.205 171.629 70.205 164.523 Q70.205 157.393 68.3763 153.852 Q66.5707 150.287 62.9365 150.287 M62.9365 146.583 Q68.7467 146.583 71.8022 151.19 Q74.8809 155.773 74.8809 164.523 Q74.8809 173.25 71.8022 177.856 Q68.7467 182.439 62.9365 182.439 Q57.1264 182.439 54.0477 177.856 Q50.9921 173.25 50.9921 164.523 Q50.9921 155.773 54.0477 151.19 Q57.1264 146.583 62.9365 146.583 Z" fill="#000000" fill-rule="nonzero" fill-opacity="1"></path><path clip-path="url(#clip320)" d="M83.0984 175.889 L87.9827 175.889 L87.9827 181.768 L83.0984 181.768 L83.0984 175.889 Z" fill="#000000" fill-rule="nonzero" fill-opacity="1"></path><path clip-path="url(#clip320)" d="M108.168 150.287 Q104.557 150.287 102.728 153.852 Q100.922 157.393 100.922 164.523 Q100.922 171.629 102.728 175.194 Q104.557 178.736 108.168 178.736 Q111.802 178.736 113.608 175.194 Q115.436 171.629 115.436 164.523 Q115.436 157.393 113.608 153.852 Q111.802 150.287 108.168 150.287 M108.168 146.583 Q113.978 146.583 117.033 151.19 Q120.112 155.773 120.112 164.523 Q120.112 173.25 117.033 177.856 Q113.978 182.439 108.168 182.439 Q102.358 182.439 99.2789 177.856 Q96.2234 173.25 96.2234 164.523 Q96.2234 155.773 99.2789 151.19 Q102.358 146.583 108.168 146.583 Z" fill="#000000" fill-rule="nonzero" fill-opacity="1"></path><path clip-path="url(#clip320)" d="M138.33 150.287 Q134.719 150.287 132.89 153.852 Q131.084 157.393 131.084 164.523 Q131.084 171.629 132.89 175.194 Q134.719 178.736 138.33 178.736 Q141.964 178.736 143.769 175.194 Q145.598 171.629 145.598 164.523 Q145.598 157.393 143.769 153.852 Q141.964 150.287 138.33 150.287 M138.33 146.583 Q144.14 146.583 147.195 151.19 Q150.274 155.773 150.274 164.523 Q150.274 173.25 147.195 177.856 Q144.14 182.439 138.33 182.439 Q132.519 182.439 129.441 177.856 Q126.385 173.25 126.385 164.523 Q126.385 155.773 129.441 151.19 Q132.519 146.583 138.33 146.583 Z" fill="#000000" fill-rule="nonzero" fill-opacity="1"></path><path clip-path="url(#clip320)" d="M168.491 150.287 Q164.88 150.287 163.052 153.852 Q161.246 157.393 161.246 164.523 Q161.246 171.629 163.052 175.194 Q164.88 178.736 168.491 178.736 Q172.126 178.736 173.931 175.194 Q175.76 171.629 175.76 164.523 Q175.76 157.393 173.931 153.852 Q172.126 150.287 168.491 150.287 M168.491 146.583 Q174.302 146.583 177.357 151.19 Q180.436 155.773 180.436 164.523 Q180.436 173.25 177.357 177.856 Q174.302 182.439 168.491 182.439 Q162.681 182.439 159.603 177.856 Q156.547 173.25 156.547 164.523 Q156.547 155.773 159.603 151.19 Q162.681 146.583 168.491 146.583 Z" fill="#000000" fill-rule="nonzero" fill-opacity="1"></path><path clip-path="url(#clip320)" d="M189.464 177.833 L197.102 177.833 L197.102 151.467 L188.792 153.134 L188.792 148.875 L197.056 147.208 L201.732 147.208 L201.732 177.833 L209.371 177.833 L209.371 181.768 L189.464 181.768 L189.464 177.833 Z" fill="#000000" fill-rule="nonzero" fill-opacity="1"></path><path clip-path="url(#clip320)" d="M228.815 150.287 Q225.204 150.287 223.375 153.852 Q221.57 157.393 221.57 164.523 Q221.57 171.629 223.375 175.194 Q225.204 178.736 228.815 178.736 Q232.449 178.736 234.255 175.194 Q236.084 171.629 236.084 164.523 Q236.084 157.393 234.255 153.852 Q232.449 150.287 228.815 150.287 M228.815 146.583 Q234.625 146.583 237.681 151.19 Q240.76 155.773 240.76 164.523 Q240.76 173.25 237.681 177.856 Q234.625 182.439 228.815 182.439 Q223.005 182.439 219.926 177.856 Q216.871 173.25 216.871 164.523 Q216.871 155.773 219.926 151.19 Q223.005 146.583 228.815 146.583 Z" fill="#000000" fill-rule="nonzero" fill-opacity="1"></path><path clip-path="url(#clip320)" d="M258.977 150.287 Q255.366 150.287 253.537 153.852 Q251.732 157.393 251.732 164.523 Q251.732 171.629 253.537 175.194 Q255.366 178.736 258.977 178.736 Q262.611 178.736 264.417 175.194 Q266.246 171.629 266.246 164.523 Q266.246 157.393 264.417 153.852 Q262.611 150.287 258.977 150.287 M258.977 146.583 Q264.787 146.583 267.843 151.19 Q270.922 155.773 270.922 164.523 Q270.922 173.25 267.843 177.856 Q264.787 182.439 258.977 182.439 Q253.167 182.439 250.088 177.856 Q247.033 173.25 247.033 164.523 Q247.033 155.773 250.088 151.19 Q253.167 146.583 258.977 146.583 Z" fill="#000000" fill-rule="nonzero" fill-opacity="1"></path><polyline clip-path="url(#clip322)" style="stroke:#009af9; stroke-linecap:round; stroke-linejoin:round; stroke-width:4; stroke-opacity:1; fill:none" points="364.822,1445.72 403.423,164.488 442.024,87.9763 480.624,96.3827 519.225,109.443 557.826,121.525 596.426,132.345 635.027,141.992 673.628,150.578 712.228,158.203 750.829,164.964 789.43,170.947 828.03,176.232 866.631,180.891 905.232,184.992 943.832,188.594 982.433,191.75 1021.03,194.508 1059.63,196.911 1098.23,198.993 1136.84,200.786 1175.44,202.314 1214.04,203.596 1252.64,204.648 1291.24,205.476 1329.84,206.085 1368.44,206.472 1407.04,206.63 1445.64,206.545 1484.24,206.199 1522.84,205.569 1561.44,204.625 1600.04,203.332 1638.64,201.65 1677.24,199.533 1715.85,196.927 1754.45,193.775 1793.05,190.012 1831.65,185.568 1870.25,180.363 1908.85,174.313 1947.45,167.326 1986.05,159.302 2024.65,150.131 2063.25,139.697 2101.85,127.874 2140.45,114.555 2179.05,100.008 2217.65,89.855 2256.25,164.488 2294.85,1445.72 "></polyline>
<path clip-path="url(#clip320)" d="M2027.55 1438.47 L2284.56 1438.47 L2284.56 1334.79 L2027.55 1334.79  Z" fill="#ffffff" fill-rule="evenodd" fill-opacity="1"></path>
<polyline clip-path="url(#clip320)" style="stroke:#000000; stroke-linecap:round; stroke-linejoin:round; stroke-width:4; stroke-opacity:1; fill:none" points="2027.55,1438.47 2284.56,1438.47 2284.56,1334.79 2027.55,1334.79 2027.55,1438.47 "></polyline>
<polyline clip-path="url(#clip320)" style="stroke:#009af9; stroke-linecap:round; stroke-linejoin:round; stroke-width:4; stroke-opacity:1; fill:none" points="2050.28,1386.63 2186.67,1386.63 "></polyline>
<path clip-path="url(#clip320)" d="M2223.24 1406.32 Q2221.44 1410.95 2219.72 1412.36 Q2218.01 1413.78 2215.14 1413.78 L2211.74 1413.78 L2211.74 1410.21 L2214.24 1410.21 Q2216 1410.21 2216.97 1409.38 Q2217.94 1408.54 2219.12 1405.44 L2219.89 1403.5 L2209.4 1377.99 L2213.91 1377.99 L2222.02 1398.27 L2230.12 1377.99 L2234.63 1377.99 L2223.24 1406.32 Z" fill="#000000" fill-rule="nonzero" fill-opacity="1"></path><path clip-path="url(#clip320)" d="M2241.92 1399.98 L2249.56 1399.98 L2249.56 1373.61 L2241.25 1375.28 L2241.25 1371.02 L2249.52 1369.35 L2254.19 1369.35 L2254.19 1399.98 L2261.83 1399.98 L2261.83 1403.91 L2241.92 1403.91 L2241.92 1399.98 Z" fill="#000000" fill-rule="nonzero" fill-opacity="1"></path></svg>