<svg xmlns="http://www.w3.org/2000/svg" xmlns:xlink="http://www.w3.org/1999/xlink" width="600" height="400" viewBox="0 0 2400 1600">
<defs>
  <clipPath id="clip770">
    <rect x="0" y="0" width="2400" height="1600"></rect>
  </clipPath>
</defs>
<path clip-path="url(#clip770)" d="M0 1600 L2400 1600 L2400 0 L0 0  Z" fill="#ffffff" fill-rule="evenodd" fill-opacity="1"></path>
<defs>
  <clipPath id="clip771">
    <rect x="480" y="0" width="1681" height="1600"></rect>
  </clipPath>
</defs>
<path clip-path="url(#clip770)" d="M193.936 1486.45 L2352.76 1486.45 L2352.76 47.2441 L193.936 47.2441  Z" fill="#ffffff" fill-rule="evenodd" fill-opacity="1"></path>
<defs>
  <clipPath id="clip772">
    <rect x="193" y="47" width="2160" height="1440"></rect>
  </clipPath>
</defs>
<polyline clip-path="url(#clip772)" style="stroke:#000000; stroke-linecap:round; stroke-linejoin:round; stroke-width:2; stroke-opacity:0.1; fill:none" points="255.035,1486.45 255.035,47.2441 "></polyline>
<polyline clip-path="url(#clip772)" style="stroke:#000000; stroke-linecap:round; stroke-linejoin:round; stroke-width:2; stroke-opacity:0.1; fill:none" points="910.192,1486.45 910.192,47.2441 "></polyline>
<polyline clip-path="url(#clip772)" style="stroke:#000000; stroke-linecap:round; stroke-linejoin:round; stroke-width:2; stroke-opacity:0.1; fill:none" points="1565.35,1486.45 1565.35,47.2441 "></polyline>
<polyline clip-path="url(#clip772)" style="stroke:#000000; stroke-linecap:round; stroke-linejoin:round; stroke-width:2; stroke-opacity:0.1; fill:none" points="2220.51,1486.45 2220.51,47.2441 "></polyline>
<polyline clip-path="url(#clip770)" style="stroke:#000000; stroke-linecap:round; stroke-linejoin:round; stroke-width:4; stroke-opacity:1; fill:none" points="193.936,1486.45 2352.76,1486.45 "></polyline>
<polyline clip-path="url(#clip770)" style="stroke:#000000; stroke-linecap:round; stroke-linejoin:round; stroke-width:4; stroke-opacity:1; fill:none" points="255.035,1486.45 255.035,1467.55 "></polyline>
<polyline clip-path="url(#clip770)" style="stroke:#000000; stroke-linecap:round; stroke-linejoin:round; stroke-width:4; stroke-opacity:1; fill:none" points="910.192,1486.45 910.192,1467.55 "></polyline>
<polyline clip-path="url(#clip770)" style="stroke:#000000; stroke-linecap:round; stroke-linejoin:round; stroke-width:4; stroke-opacity:1; fill:none" points="1565.35,1486.45 1565.35,1467.55 "></polyline>
<polyline clip-path="url(#clip770)" style="stroke:#000000; stroke-linecap:round; stroke-linejoin:round; stroke-width:4; stroke-opacity:1; fill:none" points="2220.51,1486.45 2220.51,1467.55 "></polyline>
<path clip-path="url(#clip770)" d="M255.035 1517.37 Q251.424 1517.37 249.595 1520.93 Q247.789 1524.47 247.789 1531.6 Q247.789 1538.71 249.595 1542.27 Q251.424 1545.82 255.035 1545.82 Q258.669 1545.82 260.474 1542.27 Q262.303 1538.71 262.303 1531.6 Q262.303 1524.47 260.474 1520.93 Q258.669 1517.37 255.035 1517.37 M255.035 1513.66 Q260.845 1513.66 263.9 1518.27 Q266.979 1522.85 266.979 1531.6 Q266.979 1540.33 263.9 1544.94 Q260.845 1549.52 255.035 1549.52 Q249.225 1549.52 246.146 1544.94 Q243.09 1540.33 243.09 1531.6 Q243.09 1522.85 246.146 1518.27 Q249.225 1513.66 255.035 1513.66 Z" fill="#000000" fill-rule="nonzero" fill-opacity="1"></path><path clip-path="url(#clip770)" d="M900.574 1544.91 L908.213 1544.91 L908.213 1518.55 L899.903 1520.21 L899.903 1515.95 L908.167 1514.29 L912.843 1514.29 L912.843 1544.91 L920.481 1544.91 L920.481 1548.85 L900.574 1548.85 L900.574 1544.91 Z" fill="#000000" fill-rule="nonzero" fill-opacity="1"></path><path clip-path="url(#clip770)" d="M1560 1544.91 L1576.32 1544.91 L1576.32 1548.85 L1554.38 1548.85 L1554.38 1544.91 Q1557.04 1542.16 1561.62 1537.53 Q1566.23 1532.88 1567.41 1531.53 Q1569.66 1529.01 1570.53 1527.27 Q1571.44 1525.51 1571.44 1523.82 Q1571.44 1521.07 1569.49 1519.33 Q1567.57 1517.6 1564.47 1517.6 Q1562.27 1517.6 1559.82 1518.36 Q1557.39 1519.13 1554.61 1520.68 L1554.61 1515.95 Q1557.43 1514.82 1559.89 1514.24 Q1562.34 1513.66 1564.38 1513.66 Q1569.75 1513.66 1572.94 1516.35 Q1576.14 1519.03 1576.14 1523.52 Q1576.14 1525.65 1575.33 1527.57 Q1574.54 1529.47 1572.43 1532.07 Q1571.85 1532.74 1568.75 1535.95 Q1565.65 1539.15 1560 1544.91 Z" fill="#000000" fill-rule="nonzero" fill-opacity="1"></path><path clip-path="url(#clip770)" d="M2224.75 1530.21 Q2228.11 1530.93 2229.99 1533.2 Q2231.88 1535.47 2231.88 1538.8 Q2231.88 1543.92 2228.37 1546.72 Q2224.85 1549.52 2218.37 1549.52 Q2216.19 1549.52 2213.88 1549.08 Q2211.58 1548.66 2209.13 1547.81 L2209.13 1543.29 Q2211.07 1544.43 2213.39 1545.01 Q2215.7 1545.58 2218.23 1545.58 Q2222.63 1545.58 2224.92 1543.85 Q2227.23 1542.11 2227.23 1538.8 Q2227.23 1535.75 2225.08 1534.03 Q2222.95 1532.3 2219.13 1532.3 L2215.1 1532.3 L2215.1 1528.45 L2219.32 1528.45 Q2222.76 1528.45 2224.59 1527.09 Q2226.42 1525.7 2226.42 1523.11 Q2226.42 1520.45 2224.52 1519.03 Q2222.65 1517.6 2219.13 1517.6 Q2217.21 1517.6 2215.01 1518.01 Q2212.81 1518.43 2210.17 1519.31 L2210.17 1515.14 Q2212.83 1514.4 2215.15 1514.03 Q2217.49 1513.66 2219.55 1513.66 Q2224.87 1513.66 2227.97 1516.09 Q2231.07 1518.5 2231.07 1522.62 Q2231.07 1525.49 2229.43 1527.48 Q2227.79 1529.45 2224.75 1530.21 Z" fill="#000000" fill-rule="nonzero" fill-opacity="1"></path><polyline clip-path="url(#clip772)" style="stroke:#000000; stroke-linecap:round; stroke-linejoin:round; stroke-width:2; stroke-opacity:0.1; fill:none" points="193.936,1445.49 2352.76,1445.49 "></polyline>
<polyline clip-path="url(#clip772)" style="stroke:#000000; stroke-linecap:round; stroke-linejoin:round; stroke-width:2; stroke-opacity:0.1; fill:none" points="193.936,1106.11 2352.76,1106.11 "></polyline>
<polyline clip-path="url(#clip772)" style="stroke:#000000; stroke-linecap:round; stroke-linejoin:round; stroke-width:2; stroke-opacity:0.1; fill:none" points="193.936,766.735 2352.76,766.735 "></polyline>
<polyline clip-path="url(#clip772)" style="stroke:#000000; stroke-linecap:round; stroke-linejoin:round; stroke-width:2; stroke-opacity:0.1; fill:none" points="193.936,427.355 2352.76,427.355 "></polyline>
<polyline clip-path="url(#clip772)" style="stroke:#000000; stroke-linecap:round; stroke-linejoin:round; stroke-width:2; stroke-opacity:0.1; fill:none" points="193.936,87.9763 2352.76,87.9763 "></polyline>
<polyline clip-path="url(#clip770)" style="stroke:#000000; stroke-linecap:round; stroke-linejoin:round; stroke-width:4; stroke-opacity:1; fill:none" points="193.936,1486.45 193.936,47.2441 "></polyline>
<polyline clip-path="url(#clip770)" style="stroke:#000000; stroke-linecap:round; stroke-linejoin:round; stroke-width:4; stroke-opacity:1; fill:none" points="193.936,1445.49 212.834,1445.49 "></polyline>
<polyline clip-path="url(#clip770)" style="stroke:#000000; stroke-linecap:round; stroke-linejoin:round; stroke-width:4; stroke-opacity:1; fill:none" points="193.936,1106.11 212.834,1106.11 "></polyline>
<polyline clip-path="url(#clip770)" style="stroke:#000000; stroke-linecap:round; stroke-linejoin:round; stroke-width:4; stroke-opacity:1; fill:none" points="193.936,766.735 212.834,766.735 "></polyline>
<polyline clip-path="url(#clip770)" style="stroke:#000000; stroke-linecap:round; stroke-linejoin:round; stroke-width:4; stroke-opacity:1; fill:none" points="193.936,427.355 212.834,427.355 "></polyline>
<polyline clip-path="url(#clip770)" style="stroke:#000000; stroke-linecap:round; stroke-linejoin:round; stroke-width:4; stroke-opacity:1; fill:none" points="193.936,87.9763 212.834,87.9763 "></polyline>
<path clip-path="url(#clip770)" d="M50.9921 1445.94 L80.6679 1445.94 L80.6679 1449.88 L50.9921 1449.88 L50.9921 1445.94 Z" fill="#000000" fill-rule="nonzero" fill-opacity="1"></path><path clip-path="url(#clip770)" d="M91.5706 1458.84 L99.2095 1458.84 L99.2095 1432.47 L90.8993 1434.14 L90.8993 1429.88 L99.1632 1428.21 L103.839 1428.21 L103.839 1458.84 L111.478 1458.84 L111.478 1462.77 L91.5706 1462.77 L91.5706 1458.84 Z" fill="#000000" fill-rule="nonzero" fill-opacity="1"></path><path clip-path="url(#clip770)" d="M120.922 1456.89 L125.807 1456.89 L125.807 1462.77 L120.922 1462.77 L120.922 1456.89 Z" fill="#000000" fill-rule="nonzero" fill-opacity="1"></path><path clip-path="url(#clip770)" d="M145.992 1431.29 Q142.381 1431.29 140.552 1434.86 Q138.746 1438.4 138.746 1445.53 Q138.746 1452.63 140.552 1456.2 Q142.381 1459.74 145.992 1459.74 Q149.626 1459.74 151.431 1456.2 Q153.26 1452.63 153.26 1445.53 Q153.26 1438.4 151.431 1434.86 Q149.626 1431.29 145.992 1431.29 M145.992 1427.59 Q151.802 1427.59 154.857 1432.19 Q157.936 1436.78 157.936 1445.53 Q157.936 1454.25 154.857 1458.86 Q151.802 1463.44 145.992 1463.44 Q140.181 1463.44 137.103 1458.86 Q134.047 1454.25 134.047 1445.53 Q134.047 1436.78 137.103 1432.19 Q140.181 1427.59 145.992 1427.59 Z" fill="#000000" fill-rule="nonzero" fill-opacity="1"></path><path clip-path="url(#clip770)" d="M51.9875 1106.57 L81.6633 1106.57 L81.6633 1110.5 L51.9875 1110.5 L51.9875 1106.57 Z" fill="#000000" fill-rule="nonzero" fill-opacity="1"></path><path clip-path="url(#clip770)" d="M101.756 1091.91 Q98.1447 1091.91 96.316 1095.48 Q94.5104 1099.02 94.5104 1106.15 Q94.5104 1113.25 96.316 1116.82 Q98.1447 1120.36 101.756 1120.36 Q105.39 1120.36 107.196 1116.82 Q109.024 1113.25 109.024 1106.15 Q109.024 1099.02 107.196 1095.48 Q105.39 1091.91 101.756 1091.91 M101.756 1088.21 Q107.566 1088.21 110.621 1092.82 Q113.7 1097.4 113.7 1106.15 Q113.7 1114.88 110.621 1119.48 Q107.566 1124.07 101.756 1124.07 Q95.9456 1124.07 92.8669 1119.48 Q89.8114 1114.88 89.8114 1106.15 Q89.8114 1097.4 92.8669 1092.82 Q95.9456 1088.21 101.756 1088.21 Z" fill="#000000" fill-rule="nonzero" fill-opacity="1"></path><path clip-path="url(#clip770)" d="M121.918 1117.51 L126.802 1117.51 L126.802 1123.39 L121.918 1123.39 L121.918 1117.51 Z" fill="#000000" fill-rule="nonzero" fill-opacity="1"></path><path clip-path="url(#clip770)" d="M137.033 1088.83 L155.39 1088.83 L155.39 1092.77 L141.316 1092.77 L141.316 1101.24 Q142.334 1100.89 143.353 1100.73 Q144.371 1100.55 145.39 1100.55 Q151.177 1100.55 154.556 1103.72 Q157.936 1106.89 157.936 1112.31 Q157.936 1117.88 154.464 1120.99 Q150.992 1124.07 144.672 1124.07 Q142.496 1124.07 140.228 1123.69 Q137.982 1123.32 135.575 1122.58 L135.575 1117.88 Q137.658 1119.02 139.881 1119.57 Q142.103 1120.13 144.58 1120.13 Q148.584 1120.13 150.922 1118.02 Q153.26 1115.92 153.26 1112.31 Q153.26 1108.69 150.922 1106.59 Q148.584 1104.48 144.58 1104.48 Q142.705 1104.48 140.83 1104.9 Q138.978 1105.32 137.033 1106.19 L137.033 1088.83 Z" fill="#000000" fill-rule="nonzero" fill-opacity="1"></path><path clip-path="url(#clip770)" d="M100.76 752.533 Q97.1493 752.533 95.3206 756.098 Q93.515 759.64 93.515 766.769 Q93.515 773.876 95.3206 777.441 Q97.1493 780.982 100.76 780.982 Q104.395 780.982 106.2 777.441 Q108.029 773.876 108.029 766.769 Q108.029 759.64 106.2 756.098 Q104.395 752.533 100.76 752.533 M100.76 748.83 Q106.571 748.83 109.626 753.436 Q112.705 758.019 112.705 766.769 Q112.705 775.496 109.626 780.103 Q106.571 784.686 100.76 784.686 Q94.9502 784.686 91.8715 780.103 Q88.816 775.496 88.816 766.769 Q88.816 758.019 91.8715 753.436 Q94.9502 748.83 100.76 748.83 Z" fill="#000000" fill-rule="nonzero" fill-opacity="1"></path><path clip-path="url(#clip770)" d="M120.922 778.135 L125.807 778.135 L125.807 784.015 L120.922 784.015 L120.922 778.135 Z" fill="#000000" fill-rule="nonzero" fill-opacity="1"></path><path clip-path="url(#clip770)" d="M145.992 752.533 Q142.381 752.533 140.552 756.098 Q138.746 759.64 138.746 766.769 Q138.746 773.876 140.552 777.441 Q142.381 780.982 145.992 780.982 Q149.626 780.982 151.431 777.441 Q153.26 773.876 153.26 766.769 Q153.26 759.64 151.431 756.098 Q149.626 752.533 145.992 752.533 M145.992 748.83 Q151.802 748.83 154.857 753.436 Q157.936 758.019 157.936 766.769 Q157.936 775.496 154.857 780.103 Q151.802 784.686 145.992 784.686 Q140.181 784.686 137.103 780.103 Q134.047 775.496 134.047 766.769 Q134.047 758.019 137.103 753.436 Q140.181 748.83 145.992 748.83 Z" fill="#000000" fill-rule="nonzero" fill-opacity="1"></path><path clip-path="url(#clip770)" d="M101.756 413.154 Q98.1447 413.154 96.316 416.719 Q94.5104 420.261 94.5104 427.39 Q94.5104 434.497 96.316 438.061 Q98.1447 441.603 101.756 441.603 Q105.39 441.603 107.196 438.061 Q109.024 434.497 109.024 427.39 Q109.024 420.261 107.196 416.719 Q105.39 413.154 101.756 413.154 M101.756 409.45 Q107.566 409.45 110.621 414.057 Q113.7 418.64 113.7 427.39 Q113.7 436.117 110.621 440.723 Q107.566 445.307 101.756 445.307 Q95.9456 445.307 92.8669 440.723 Q89.8114 436.117 89.8114 427.39 Q89.8114 418.64 92.8669 414.057 Q95.9456 409.45 101.756 409.45 Z" fill="#000000" fill-rule="nonzero" fill-opacity="1"></path><path clip-path="url(#clip770)" d="M121.918 438.756 L126.802 438.756 L126.802 444.635 L121.918 444.635 L121.918 438.756 Z" fill="#000000" fill-rule="nonzero" fill-opacity="1"></path><path clip-path="url(#clip770)" d="M137.033 410.075 L155.39 410.075 L155.39 414.011 L141.316 414.011 L141.316 422.483 Q142.334 422.136 143.353 421.974 Q144.371 421.788 145.39 421.788 Q151.177 421.788 154.556 424.96 Q157.936 428.131 157.936 433.548 Q157.936 439.126 154.464 442.228 Q150.992 445.307 144.672 445.307 Q142.496 445.307 140.228 444.936 Q137.982 444.566 135.575 443.825 L135.575 439.126 Q137.658 440.26 139.881 440.816 Q142.103 441.372 144.58 441.372 Q148.584 441.372 150.922 439.265 Q153.26 437.159 153.26 433.548 Q153.26 429.936 150.922 427.83 Q148.584 425.723 144.58 425.723 Q142.705 425.723 140.83 426.14 Q138.978 426.557 137.033 427.436 L137.033 410.075 Z" fill="#000000" fill-rule="nonzero" fill-opacity="1"></path><path clip-path="url(#clip770)" d="M91.5706 101.321 L99.2095 101.321 L99.2095 74.9555 L90.8993 76.6222 L90.8993 72.3629 L99.1632 70.6963 L103.839 70.6963 L103.839 101.321 L111.478 101.321 L111.478 105.256 L91.5706 105.256 L91.5706 101.321 Z" fill="#000000" fill-rule="nonzero" fill-opacity="1"></path><path clip-path="url(#clip770)" d="M120.922 99.3767 L125.807 99.3767 L125.807 105.256 L120.922 105.256 L120.922 99.3767 Z" fill="#000000" fill-rule="nonzero" fill-opacity="1"></path><path clip-path="url(#clip770)" d="M145.992 73.775 Q142.381 73.775 140.552 77.3398 Q138.746 80.8814 138.746 88.011 Q138.746 95.1174 140.552 98.6822 Q142.381 102.224 145.992 102.224 Q149.626 102.224 151.431 98.6822 Q153.26 95.1174 153.26 88.011 Q153.26 80.8814 151.431 77.3398 Q149.626 73.775 145.992 73.775 M145.992 70.0713 Q151.802 70.0713 154.857 74.6777 Q157.936 79.261 157.936 88.011 Q157.936 96.7378 154.857 101.344 Q151.802 105.928 145.992 105.928 Q140.181 105.928 137.103 101.344 Q134.047 96.7378 134.047 88.011 Q134.047 79.261 137.103 74.6777 Q140.181 70.0713 145.992 70.0713 Z" fill="#000000" fill-rule="nonzero" fill-opacity="1"></path><polyline clip-path="url(#clip772)" style="stroke:#009af9; stroke-linecap:round; stroke-linejoin:round; stroke-width:4; stroke-opacity:1; fill:none" points="255.035,87.9763 275.607,88.3109 296.179,89.3143 316.751,90.9856 337.322,93.3231 357.894,96.3245 378.466,99.9868 399.038,104.306 419.61,109.279 440.182,114.9 460.754,121.164 481.326,128.064 501.898,135.593 522.47,143.745 543.042,152.511 563.614,161.883 584.186,171.851 604.758,182.405 625.33,193.536 645.902,205.231 666.474,217.481 687.046,230.271 707.617,243.591 728.189,257.426 748.761,271.764 769.333,286.589 789.905,301.888 810.477,317.645 831.049,333.845 851.621,350.471 872.193,367.508 892.765,384.939 913.337,402.746 933.909,420.911 954.481,439.418 975.053,458.248 995.625,477.381 1016.2,496.8 1036.77,516.485 1057.34,536.417 1077.91,556.576 1098.48,576.941 1119.06,597.495 1139.63,618.214 1160.2,639.081 1180.77,660.073 1201.34,681.17 1221.92,702.352 1242.49,723.597 1263.06,744.885 1283.63,766.194 1304.2,787.504 1324.78,808.793 1345.35,830.041 1365.92,851.226 1386.49,872.328 1407.06,893.327 1427.64,914.2 1448.21,934.928 1468.78,955.49 1489.35,975.865 1509.92,996.035 1530.5,1015.98 1551.07,1035.68 1571.64,1055.11 1592.21,1074.26 1612.78,1093.1 1633.35,1111.63 1653.93,1129.81 1674.5,1147.64 1695.07,1165.09 1715.64,1182.14 1736.21,1198.79 1756.79,1215.01 1777.36,1230.79 1797.93,1246.12 1818.5,1260.97 1839.07,1275.33 1859.65,1289.19 1880.22,1302.54 1900.79,1315.35 1921.36,1327.63 1941.93,1339.35 1962.51,1350.51 1983.08,1361.1 2003.65,1371.09 2024.22,1380.5 2044.79,1389.29 2065.37,1397.48 2085.94,1405.04 2106.51,1411.97 2127.08,1418.27 2147.65,1423.92 2168.23,1428.93 2188.8,1433.28 2209.37,1436.97 2229.94,1440.01 2250.51,1442.38 2271.09,1444.09 2291.66,1445.12 "></polyline>
<polyline clip-path="url(#clip772)" style="stroke:#e26f46; stroke-linecap:round; stroke-linejoin:round; stroke-width:4; stroke-opacity:1; fill:none" points="255.035,766.735 275.607,788.041 296.179,809.326 316.751,830.569 337.322,851.749 357.894,872.845 378.466,893.837 399.038,914.703 419.61,935.423 440.182,955.978 460.754,976.345 481.326,996.506 501.898,1016.44 522.47,1036.13 543.042,1055.55 563.614,1074.69 584.186,1093.52 604.758,1112.04 625.33,1130.21 645.902,1148.02 666.474,1165.46 687.046,1182.5 707.617,1199.14 728.189,1215.35 748.761,1231.11 769.333,1246.42 789.905,1261.25 810.477,1275.6 831.049,1289.45 851.621,1302.78 872.193,1315.58 892.765,1327.84 913.337,1339.55 933.909,1350.69 954.481,1361.26 975.053,1371.24 995.625,1380.63 1016.2,1389.41 1036.77,1397.57 1057.34,1405.12 1077.91,1412.03 1098.48,1418.31 1119.06,1423.95 1139.63,1428.94 1160.2,1433.27 1180.77,1436.95 1201.34,1439.97 1221.92,1442.32 1242.49,1444.01 1263.06,1445.03 1283.63,1445.38 1304.2,1445.06 1324.78,1444.08 1345.35,1442.42 1365.92,1440.1 1386.49,1437.12 1407.06,1433.47 1427.64,1429.17 1448.21,1424.22 1468.78,1418.61 1489.35,1412.37 1509.92,1405.48 1530.5,1397.97 1551.07,1389.84 1571.64,1381.09 1592.21,1371.73 1612.78,1361.78 1633.35,1351.24 1653.93,1340.13 1674.5,1328.45 1695.07,1316.22 1715.64,1303.44 1736.21,1290.14 1756.79,1276.32 1777.36,1261.99 1797.93,1247.18 1818.5,1231.9 1839.07,1216.16 1859.65,1199.97 1880.22,1183.36 1900.79,1166.33 1921.36,1148.91 1941.93,1131.12 1962.51,1112.97 1983.08,1094.47 2003.65,1075.65 2024.22,1056.53 2044.79,1037.12 2065.37,1017.45 2085.94,997.523 2106.51,977.373 2127.08,957.015 2147.65,936.47 2168.23,915.758 2188.8,894.898 2209.37,873.912 2229.94,852.821 2250.51,831.645 2271.09,810.404 2291.66,789.121 "></polyline>
<polyline clip-path="url(#clip772)" style="stroke:#3da44d; stroke-linecap:round; stroke-linejoin:round; stroke-width:4; stroke-opacity:1; fill:none" points="255.035,766.729 275.607,788.046 296.179,809.341 316.751,830.595 337.322,851.785 357.894,872.892 378.466,893.894 399.038,914.771 419.61,935.501 440.182,956.066 460.754,976.444 481.326,996.614 501.898,1016.56 522.47,1036.26 543.042,1055.69 563.614,1074.84 584.186,1093.68 604.758,1112.2 625.33,1130.38 645.902,1148.2 666.474,1165.65 687.046,1182.7 707.617,1199.35 728.189,1215.56 748.761,1231.34 769.333,1246.65 789.905,1261.49 810.477,1275.85 831.049,1289.7 851.621,1303.04 872.193,1315.85 892.765,1328.12 913.337,1339.83 933.909,1350.98 954.481,1361.55 975.053,1371.54 995.625,1380.93 1016.2,1389.71 1036.77,1397.88 1057.34,1405.43 1077.91,1412.35 1098.48,1418.63 1119.06,1424.27 1139.63,1429.26 1160.2,1433.6 1180.77,1437.28 1201.34,1440.3 1221.92,1442.65 1242.49,1444.34 1263.06,1445.36 1283.63,1445.72 1304.2,1445.4 1324.78,1444.41 1345.35,1442.76 1365.92,1440.44 1386.49,1437.45 1407.06,1433.8 1427.64,1429.5 1448.21,1424.54 1468.78,1418.94 1489.35,1412.69 1509.92,1405.8 1530.5,1398.28 1551.07,1390.15 1571.64,1381.39 1592.21,1372.03 1612.78,1362.08 1633.35,1351.53 1653.93,1340.41 1674.5,1328.73 1695.07,1316.49 1715.64,1303.71 1736.21,1290.4 1756.79,1276.57 1777.36,1262.24 1797.93,1247.42 1818.5,1232.13 1839.07,1216.38 1859.65,1200.19 1880.22,1183.57 1900.79,1166.53 1921.36,1149.11 1941.93,1131.3 1962.51,1113.14 1983.08,1094.64 2003.65,1075.81 2024.22,1056.68 2044.79,1037.26 2065.37,1017.57 2085.94,997.642 2106.51,977.482 2127.08,957.114 2147.65,936.559 2168.23,915.836 2188.8,894.967 2209.37,873.97 2229.94,852.869 2250.51,831.682 2271.09,810.431 2291.66,789.137 "></polyline>
<polyline clip-path="url(#clip772)" style="stroke:#c271d2; stroke-linecap:round; stroke-linejoin:round; stroke-width:4; stroke-opacity:1; fill:none" points="255.035,766.74 275.607,788.056 296.179,809.352 316.751,830.605 337.322,851.796 357.894,872.902 378.466,893.904 399.038,914.781 419.61,935.512 440.182,956.076 460.754,976.454 481.326,996.624 501.898,1016.57 522.47,1036.27 543.042,1055.7 563.614,1074.85 584.186,1093.69 604.758,1112.21 625.33,1130.39 645.902,1148.21 666.474,1165.66 687.046,1182.71 707.617,1199.35 728.189,1215.57 748.761,1231.34 769.333,1246.66 789.905,1261.5 810.477,1275.86 831.049,1289.71 851.621,1303.05 872.193,1315.85 892.765,1328.12 913.337,1339.83 933.909,1350.98 954.481,1361.56 975.053,1371.54 995.625,1380.93 1016.2,1389.72 1036.77,1397.89 1057.34,1405.43 1077.91,1412.35 1098.48,1418.63 1119.06,1424.27 1139.63,1429.26 1160.2,1433.6 1180.77,1437.28 1201.34,1440.3 1221.92,1442.66 1242.49,1444.34 1263.06,1445.36 1283.63,1445.72 1304.2,1445.4 1324.78,1444.41 1345.35,1442.76 1365.92,1440.43 1386.49,1437.45 1407.06,1433.8 1427.64,1429.5 1448.21,1424.54 1468.78,1418.93 1489.35,1412.68 1509.92,1405.8 1530.5,1398.28 1551.07,1390.14 1571.64,1381.39 1592.21,1372.03 1612.78,1362.07 1633.35,1351.53 1653.93,1340.41 1674.5,1328.72 1695.07,1316.48 1715.64,1303.7 1736.21,1290.39 1756.79,1276.56 1777.36,1262.23 1797.93,1247.42 1818.5,1232.12 1839.07,1216.37 1859.65,1200.18 1880.22,1183.56 1900.79,1166.53 1921.36,1149.1 1941.93,1131.29 1962.51,1113.13 1983.08,1094.63 2003.65,1075.8 2024.22,1056.67 2044.79,1037.25 2065.37,1017.56 2085.94,997.632 2106.51,977.472 2127.08,957.104 2147.65,936.549 2168.23,915.826 2188.8,894.956 2209.37,873.96 2229.94,852.858 2250.51,831.671 2271.09,810.421 2291.66,789.127 "></polyline>
<path clip-path="url(#clip770)" d="M1908.55 354.418 L2280.8 354.418 L2280.8 95.2176 L1908.55 95.2176  Z" fill="#ffffff" fill-rule="evenodd" fill-opacity="1"></path>
<polyline clip-path="url(#clip770)" style="stroke:#000000; stroke-linecap:round; stroke-linejoin:round; stroke-width:4; stroke-opacity:1; fill:none" points="1908.55,354.418 2280.8,354.418 2280.8,95.2176 1908.55,95.2176 1908.55,354.418 "></polyline>
<polyline clip-path="url(#clip770)" style="stroke:#009af9; stroke-linecap:round; stroke-linejoin:round; stroke-width:4; stroke-opacity:1; fill:none" points="1932.54,147.058 2076.46,147.058 "></polyline>
<path clip-path="url(#clip770)" d="M2116.95 128.319 L2116.95 131.861 L2112.87 131.861 Q2110.58 131.861 2109.68 132.787 Q2108.8 133.713 2108.8 136.12 L2108.8 138.412 L2115.81 138.412 L2115.81 141.722 L2108.8 141.722 L2108.8 164.338 L2104.52 164.338 L2104.52 141.722 L2100.44 141.722 L2100.44 138.412 L2104.52 138.412 L2104.52 136.606 Q2104.52 132.278 2106.53 130.31 Q2108.55 128.319 2112.92 128.319 L2116.95 128.319 Z" fill="#000000" fill-rule="nonzero" fill-opacity="1"></path><path clip-path="url(#clip770)" d="M2130.74 128.366 Q2127.64 133.69 2126.14 138.898 Q2124.63 144.106 2124.63 149.453 Q2124.63 154.801 2126.14 160.055 Q2127.67 165.287 2130.74 170.588 L2127.04 170.588 Q2123.57 165.148 2121.83 159.893 Q2120.12 154.639 2120.12 149.453 Q2120.12 144.291 2121.83 139.06 Q2123.55 133.828 2127.04 128.366 L2130.74 128.366 Z" fill="#000000" fill-rule="nonzero" fill-opacity="1"></path><path clip-path="url(#clip770)" d="M2160.56 138.412 L2151.18 151.027 L2161.04 164.338 L2156.02 164.338 L2148.48 154.152 L2140.93 164.338 L2135.91 164.338 L2145.98 150.773 L2136.76 138.412 L2141.79 138.412 L2148.66 147.648 L2155.54 138.412 L2160.56 138.412 Z" fill="#000000" fill-rule="nonzero" fill-opacity="1"></path><path clip-path="url(#clip770)" d="M2166.39 128.366 L2170.1 128.366 Q2173.57 133.828 2175.28 139.06 Q2177.02 144.291 2177.02 149.453 Q2177.02 154.639 2175.28 159.893 Q2173.57 165.148 2170.1 170.588 L2166.39 170.588 Q2169.47 165.287 2170.98 160.055 Q2172.5 154.801 2172.5 149.453 Q2172.5 144.106 2170.98 138.898 Q2169.47 133.69 2166.39 128.366 Z" fill="#000000" fill-rule="nonzero" fill-opacity="1"></path><polyline clip-path="url(#clip770)" style="stroke:#e26f46; stroke-linecap:round; stroke-linejoin:round; stroke-width:4; stroke-opacity:1; fill:none" points="1932.54,198.898 2076.46,198.898 "></polyline>
<path clip-path="url(#clip770)" d="M2119.36 194.187 L2119.36 180.159 L2123.61 180.159 L2123.61 216.178 L2119.36 216.178 L2119.36 212.289 Q2118.01 214.603 2115.95 215.738 Q2113.92 216.849 2111.05 216.849 Q2106.35 216.849 2103.38 213.099 Q2100.44 209.349 2100.44 203.238 Q2100.44 197.127 2103.38 193.377 Q2106.35 189.627 2111.05 189.627 Q2113.92 189.627 2115.95 190.761 Q2118.01 191.872 2119.36 194.187 M2104.84 203.238 Q2104.84 207.937 2106.76 210.622 Q2108.71 213.284 2112.09 213.284 Q2115.47 213.284 2117.41 210.622 Q2119.36 207.937 2119.36 203.238 Q2119.36 198.539 2117.41 195.877 Q2115.47 193.192 2112.09 193.192 Q2108.71 193.192 2106.76 195.877 Q2104.84 198.539 2104.84 203.238 Z" fill="#000000" fill-rule="nonzero" fill-opacity="1"></path><path clip-path="url(#clip770)" d="M2166.11 191.247 L2166.11 195.229 Q2164.31 194.233 2162.48 193.747 Q2160.67 193.238 2158.82 193.238 Q2154.68 193.238 2152.39 195.877 Q2150.1 198.492 2150.1 203.238 Q2150.1 207.983 2152.39 210.622 Q2154.68 213.238 2158.82 213.238 Q2160.67 213.238 2162.48 212.752 Q2164.31 212.242 2166.11 211.247 L2166.11 215.182 Q2164.33 216.016 2162.41 216.432 Q2160.51 216.849 2158.36 216.849 Q2152.5 216.849 2149.05 213.168 Q2145.61 209.488 2145.61 203.238 Q2145.61 196.895 2149.08 193.261 Q2152.57 189.627 2158.64 189.627 Q2160.61 189.627 2162.48 190.043 Q2164.36 190.437 2166.11 191.247 Z" fill="#000000" fill-rule="nonzero" fill-opacity="1"></path><path clip-path="url(#clip770)" d="M2195.7 202.15 L2195.7 204.233 L2176.11 204.233 Q2176.39 208.631 2178.75 210.946 Q2181.14 213.238 2185.37 213.238 Q2187.83 213.238 2190.12 212.636 Q2192.43 212.034 2194.7 210.83 L2194.7 214.858 Q2192.41 215.83 2190 216.34 Q2187.6 216.849 2185.12 216.849 Q2178.92 216.849 2175.28 213.238 Q2171.67 209.627 2171.67 203.469 Q2171.67 197.104 2175.1 193.377 Q2178.54 189.627 2184.38 189.627 Q2189.61 189.627 2192.64 193.006 Q2195.7 196.363 2195.7 202.15 M2191.44 200.9 Q2191.39 197.405 2189.47 195.321 Q2187.57 193.238 2184.42 193.238 Q2180.86 193.238 2178.71 195.252 Q2176.58 197.266 2176.25 200.923 L2191.44 200.9 Z" fill="#000000" fill-rule="nonzero" fill-opacity="1"></path><path clip-path="url(#clip770)" d="M2224.24 200.529 L2224.24 216.178 L2219.98 216.178 L2219.98 200.668 Q2219.98 196.988 2218.54 195.159 Q2217.11 193.33 2214.24 193.33 Q2210.79 193.33 2208.8 195.53 Q2206.81 197.729 2206.81 201.525 L2206.81 216.178 L2202.53 216.178 L2202.53 190.252 L2206.81 190.252 L2206.81 194.28 Q2208.34 191.942 2210.4 190.784 Q2212.48 189.627 2215.19 189.627 Q2219.66 189.627 2221.95 192.405 Q2224.24 195.159 2224.24 200.529 Z" fill="#000000" fill-rule="nonzero" fill-opacity="1"></path><path clip-path="url(#clip770)" d="M2236.95 182.891 L2236.95 190.252 L2245.72 190.252 L2245.72 193.562 L2236.95 193.562 L2236.95 207.636 Q2236.95 210.807 2237.8 211.71 Q2238.68 212.613 2241.35 212.613 L2245.72 212.613 L2245.72 216.178 L2241.35 216.178 Q2236.41 216.178 2234.54 214.349 Q2232.66 212.497 2232.66 207.636 L2232.66 193.562 L2229.54 193.562 L2229.54 190.252 L2232.66 190.252 L2232.66 182.891 L2236.95 182.891 Z" fill="#000000" fill-rule="nonzero" fill-opacity="1"></path><path clip-path="url(#clip770)" d="M2251.92 210.298 L2256.81 210.298 L2256.81 216.178 L2251.92 216.178 L2251.92 210.298 Z" fill="#000000" fill-rule="nonzero" fill-opacity="1"></path><polyline clip-path="url(#clip770)" style="stroke:#3da44d; stroke-linecap:round; stroke-linejoin:round; stroke-width:4; stroke-opacity:1; fill:none" points="1932.54,250.738 2076.46,250.738 "></polyline>
<path clip-path="url(#clip770)" d="M2119.36 246.027 L2119.36 231.999 L2123.61 231.999 L2123.61 268.018 L2119.36 268.018 L2119.36 264.129 Q2118.01 266.443 2115.95 267.578 Q2113.92 268.689 2111.05 268.689 Q2106.35 268.689 2103.38 264.939 Q2100.44 261.189 2100.44 255.078 Q2100.44 248.967 2103.38 245.217 Q2106.35 241.467 2111.05 241.467 Q2113.92 241.467 2115.95 242.601 Q2118.01 243.712 2119.36 246.027 M2104.84 255.078 Q2104.84 259.777 2106.76 262.462 Q2108.71 265.124 2112.09 265.124 Q2115.47 265.124 2117.41 262.462 Q2119.36 259.777 2119.36 255.078 Q2119.36 250.379 2117.41 247.717 Q2115.47 245.032 2112.09 245.032 Q2108.71 245.032 2106.76 247.717 Q2104.84 250.379 2104.84 255.078 Z" fill="#000000" fill-rule="nonzero" fill-opacity="1"></path><path clip-path="url(#clip770)" d="M2132.99 262.138 L2137.87 262.138 L2137.87 268.018 L2132.99 268.018 L2132.99 262.138 Z" fill="#000000" fill-rule="nonzero" fill-opacity="1"></path><path clip-path="url(#clip770)" d="M2177.55 246.073 Q2176.83 245.657 2175.98 245.471 Q2175.14 245.263 2174.12 245.263 Q2170.51 245.263 2168.57 247.624 Q2166.65 249.962 2166.65 254.36 L2166.65 268.018 L2162.36 268.018 L2162.36 242.092 L2166.65 242.092 L2166.65 246.12 Q2167.99 243.758 2170.14 242.624 Q2172.29 241.467 2175.37 241.467 Q2175.81 241.467 2176.35 241.536 Q2176.88 241.583 2177.53 241.698 L2177.55 246.073 Z" fill="#000000" fill-rule="nonzero" fill-opacity="1"></path><path clip-path="url(#clip770)" d="M2203.15 253.99 L2203.15 256.073 L2183.57 256.073 Q2183.85 260.471 2186.21 262.786 Q2188.59 265.078 2192.83 265.078 Q2195.28 265.078 2197.57 264.476 Q2199.89 263.874 2202.16 262.67 L2202.16 266.698 Q2199.86 267.67 2197.46 268.18 Q2195.05 268.689 2192.57 268.689 Q2186.37 268.689 2182.73 265.078 Q2179.12 261.467 2179.12 255.309 Q2179.12 248.944 2182.55 245.217 Q2186 241.467 2191.83 241.467 Q2197.06 241.467 2200.1 244.846 Q2203.15 248.203 2203.15 253.99 M2198.89 252.74 Q2198.85 249.245 2196.92 247.161 Q2195.03 245.078 2191.88 245.078 Q2188.31 245.078 2186.16 247.092 Q2184.03 249.106 2183.71 252.763 L2198.89 252.74 Z" fill="#000000" fill-rule="nonzero" fill-opacity="1"></path><path clip-path="url(#clip770)" d="M2227.2 254.754 Q2227.2 250.124 2225.28 247.578 Q2223.38 245.032 2219.93 245.032 Q2216.51 245.032 2214.59 247.578 Q2212.69 250.124 2212.69 254.754 Q2212.69 259.36 2214.59 261.906 Q2216.51 264.453 2219.93 264.453 Q2223.38 264.453 2225.28 261.906 Q2227.2 259.36 2227.2 254.754 M2231.46 264.8 Q2231.46 271.42 2228.52 274.638 Q2225.58 277.879 2219.52 277.879 Q2217.27 277.879 2215.28 277.531 Q2213.29 277.207 2211.42 276.513 L2211.42 272.369 Q2213.29 273.388 2215.12 273.874 Q2216.95 274.36 2218.85 274.36 Q2223.04 274.36 2225.12 272.161 Q2227.2 269.985 2227.2 265.564 L2227.2 263.457 Q2225.88 265.749 2223.82 266.883 Q2221.76 268.018 2218.89 268.018 Q2214.12 268.018 2211.21 264.383 Q2208.29 260.749 2208.29 254.754 Q2208.29 248.735 2211.21 245.101 Q2214.12 241.467 2218.89 241.467 Q2221.76 241.467 2223.82 242.601 Q2225.88 243.735 2227.2 246.027 L2227.2 242.092 L2231.46 242.092 L2231.46 264.8 Z" fill="#000000" fill-rule="nonzero" fill-opacity="1"></path><path clip-path="url(#clip770)" d="M2240.84 262.138 L2245.72 262.138 L2245.72 268.018 L2240.84 268.018 L2240.84 262.138 Z" fill="#000000" fill-rule="nonzero" fill-opacity="1"></path><polyline clip-path="url(#clip770)" style="stroke:#c271d2; stroke-linecap:round; stroke-linejoin:round; stroke-width:4; stroke-opacity:1; fill:none" points="1932.54,302.578 2076.46,302.578 "></polyline>
<path clip-path="url(#clip770)" d="M2119.36 297.867 L2119.36 283.839 L2123.61 283.839 L2123.61 319.858 L2119.36 319.858 L2119.36 315.969 Q2118.01 318.283 2115.95 319.418 Q2113.92 320.529 2111.05 320.529 Q2106.35 320.529 2103.38 316.779 Q2100.44 313.029 2100.44 306.918 Q2100.44 300.807 2103.38 297.057 Q2106.35 293.307 2111.05 293.307 Q2113.92 293.307 2115.95 294.441 Q2118.01 295.552 2119.36 297.867 M2104.84 306.918 Q2104.84 311.617 2106.76 314.302 Q2108.71 316.964 2112.09 316.964 Q2115.47 316.964 2117.41 314.302 Q2119.36 311.617 2119.36 306.918 Q2119.36 302.219 2117.41 299.557 Q2115.47 296.872 2112.09 296.872 Q2108.71 296.872 2106.76 299.557 Q2104.84 302.219 2104.84 306.918 Z" fill="#000000" fill-rule="nonzero" fill-opacity="1"></path><path clip-path="url(#clip770)" d="M2132.99 313.978 L2137.87 313.978 L2137.87 319.858 L2132.99 319.858 L2132.99 313.978 Z" fill="#000000" fill-rule="nonzero" fill-opacity="1"></path><path clip-path="url(#clip770)" d="M2151.58 315.969 L2151.58 329.719 L2147.3 329.719 L2147.3 293.932 L2151.58 293.932 L2151.58 297.867 Q2152.92 295.552 2154.96 294.441 Q2157.02 293.307 2159.86 293.307 Q2164.59 293.307 2167.53 297.057 Q2170.49 300.807 2170.49 306.918 Q2170.49 313.029 2167.53 316.779 Q2164.59 320.529 2159.86 320.529 Q2157.02 320.529 2154.96 319.418 Q2152.92 318.283 2151.58 315.969 M2166.07 306.918 Q2166.07 302.219 2164.12 299.557 Q2162.2 296.872 2158.82 296.872 Q2155.44 296.872 2153.5 299.557 Q2151.58 302.219 2151.58 306.918 Q2151.58 311.617 2153.5 314.302 Q2155.44 316.964 2158.82 316.964 Q2162.2 316.964 2164.12 314.302 Q2166.07 311.617 2166.07 306.918 Z" fill="#000000" fill-rule="nonzero" fill-opacity="1"></path><path clip-path="url(#clip770)" d="M2192.57 297.913 Q2191.85 297.497 2191 297.311 Q2190.17 297.103 2189.15 297.103 Q2185.54 297.103 2183.59 299.464 Q2181.67 301.802 2181.67 306.2 L2181.67 319.858 L2177.39 319.858 L2177.39 293.932 L2181.67 293.932 L2181.67 297.96 Q2183.01 295.598 2185.17 294.464 Q2187.32 293.307 2190.4 293.307 Q2190.84 293.307 2191.37 293.376 Q2191.9 293.423 2192.55 293.538 L2192.57 297.913 Z" fill="#000000" fill-rule="nonzero" fill-opacity="1"></path><path clip-path="url(#clip770)" d="M2206.04 296.918 Q2202.62 296.918 2200.63 299.603 Q2198.64 302.265 2198.64 306.918 Q2198.64 311.571 2200.6 314.256 Q2202.6 316.918 2206.04 316.918 Q2209.45 316.918 2211.44 314.233 Q2213.43 311.547 2213.43 306.918 Q2213.43 302.311 2211.44 299.626 Q2209.45 296.918 2206.04 296.918 M2206.04 293.307 Q2211.6 293.307 2214.77 296.918 Q2217.94 300.529 2217.94 306.918 Q2217.94 313.284 2214.77 316.918 Q2211.6 320.529 2206.04 320.529 Q2200.47 320.529 2197.29 316.918 Q2194.15 313.284 2194.15 306.918 Q2194.15 300.529 2197.29 296.918 Q2200.47 293.307 2206.04 293.307 Z" fill="#000000" fill-rule="nonzero" fill-opacity="1"></path><path clip-path="url(#clip770)" d="M2242.06 306.594 Q2242.06 301.964 2240.14 299.418 Q2238.24 296.872 2234.79 296.872 Q2231.37 296.872 2229.45 299.418 Q2227.55 301.964 2227.55 306.594 Q2227.55 311.2 2229.45 313.746 Q2231.37 316.293 2234.79 316.293 Q2238.24 316.293 2240.14 313.746 Q2242.06 311.2 2242.06 306.594 M2246.32 316.64 Q2246.32 323.26 2243.38 326.478 Q2240.44 329.719 2234.38 329.719 Q2232.13 329.719 2230.14 329.371 Q2228.15 329.047 2226.28 328.353 L2226.28 324.209 Q2228.15 325.228 2229.98 325.714 Q2231.81 326.2 2233.71 326.2 Q2237.9 326.2 2239.98 324.001 Q2242.06 321.825 2242.06 317.404 L2242.06 315.297 Q2240.74 317.589 2238.68 318.723 Q2236.62 319.858 2233.75 319.858 Q2228.98 319.858 2226.07 316.223 Q2223.15 312.589 2223.15 306.594 Q2223.15 300.575 2226.07 296.941 Q2228.98 293.307 2233.75 293.307 Q2236.62 293.307 2238.68 294.441 Q2240.74 295.575 2242.06 297.867 L2242.06 293.932 L2246.32 293.932 L2246.32 316.64 Z" fill="#000000" fill-rule="nonzero" fill-opacity="1"></path></svg>